<svg xmlns="http://www.w3.org/2000/svg" xmlns:xlink="http://www.w3.org/1999/xlink" version="1.1" class="marks" width="942" height="585" viewBox="0 0 942 585"><rect width="942" height="585" fill="white"/><g fill="none" stroke-miterlimit="10" transform="translate(64,38)"><g class="mark-group role-frame root" role="graphics-object" aria-roledescription="group mark container"><g transform="translate(0,0)"><path class="background" aria-hidden="true" d="M0.5,0.5h800v500h-800Z"/><g><g class="mark-group role-axis" aria-hidden="true"><g transform="translate(0.5,500.5)"><path class="background" aria-hidden="true" d="M0,0h0v0h0Z" pointer-events="none"/><g><g class="mark-rule role-axis-grid" pointer-events="none"><line transform="translate(16,-500)" x2="0" y2="500" stroke="#ddd" stroke-width="1" opacity="1"/><line transform="translate(48,-500)" x2="0" y2="500" stroke="#ddd" stroke-width="1" opacity="1"/><line transform="translate(80,-500)" x2="0" y2="500" stroke="#ddd" stroke-width="1" opacity="1"/><line transform="translate(112,-500)" x2="0" y2="500" stroke="#ddd" stroke-width="1" opacity="1"/><line transform="translate(144,-500)" x2="0" y2="500" stroke="#ddd" stroke-width="1" opacity="1"/><line transform="translate(176,-500)" x2="0" y2="500" stroke="#ddd" stroke-width="1" opacity="1"/><line transform="translate(208,-500)" x2="0" y2="500" stroke="#ddd" stroke-width="1" opacity="1"/><line transform="translate(240,-500)" x2="0" y2="500" stroke="#ddd" stroke-width="1" opacity="1"/><line transform="translate(272,-500)" x2="0" y2="500" stroke="#ddd" stroke-width="1" opacity="1"/><line transform="translate(304,-500)" x2="0" y2="500" stroke="#ddd" stroke-width="1" opacity="1"/><line transform="translate(336,-500)" x2="0" y2="500" stroke="#ddd" stroke-width="1" opacity="1"/><line transform="translate(368,-500)" x2="0" y2="500" stroke="#ddd" stroke-width="1" opacity="1"/><line transform="translate(400,-500)" x2="0" y2="500" stroke="#ddd" stroke-width="1" opacity="1"/><line transform="translate(432,-500)" x2="0" y2="500" stroke="#ddd" stroke-width="1" opacity="1"/><line transform="translate(464,-500)" x2="0" y2="500" stroke="#ddd" stroke-width="1" opacity="1"/><line transform="translate(496,-500)" x2="0" y2="500" stroke="#ddd" stroke-width="1" opacity="1"/><line transform="translate(528,-500)" x2="0" y2="500" stroke="#ddd" stroke-width="1" opacity="1"/><line transform="translate(560,-500)" x2="0" y2="500" stroke="#ddd" stroke-width="1" opacity="1"/><line transform="translate(592,-500)" x2="0" y2="500" stroke="#ddd" stroke-width="1" opacity="1"/><line transform="translate(624,-500)" x2="0" y2="500" stroke="#ddd" stroke-width="1" opacity="1"/><line transform="translate(656,-500)" x2="0" y2="500" stroke="#ddd" stroke-width="1" opacity="1"/><line transform="translate(688,-500)" x2="0" y2="500" stroke="#ddd" stroke-width="1" opacity="1"/><line transform="translate(720,-500)" x2="0" y2="500" stroke="#ddd" stroke-width="1" opacity="1"/><line transform="translate(752,-500)" x2="0" y2="500" stroke="#ddd" stroke-width="1" opacity="1"/><line transform="translate(784,-500)" x2="0" y2="500" stroke="#ddd" stroke-width="1" opacity="1"/></g></g><path class="foreground" aria-hidden="true" d="" pointer-events="none" display="none"/></g></g><g class="mark-group role-axis" aria-hidden="true"><g transform="translate(0.5,0.5)"><path class="background" aria-hidden="true" d="M0,0h0v0h0Z" pointer-events="none"/><g><g class="mark-rule role-axis-grid" pointer-events="none"><line transform="translate(0,500)" x2="800" y2="0" stroke="#ddd" stroke-width="1" opacity="1"/><line transform="translate(0,450)" x2="800" y2="0" stroke="#ddd" stroke-width="1" opacity="1"/><line transform="translate(0,400)" x2="800" y2="0" stroke="#ddd" stroke-width="1" opacity="1"/><line transform="translate(0,350)" x2="800" y2="0" stroke="#ddd" stroke-width="1" opacity="1"/><line transform="translate(0,300)" x2="800" y2="0" stroke="#ddd" stroke-width="1" opacity="1"/><line transform="translate(0,250)" x2="800" y2="0" stroke="#ddd" stroke-width="1" opacity="1"/><line transform="translate(0,200)" x2="800" y2="0" stroke="#ddd" stroke-width="1" opacity="1"/><line transform="translate(0,150)" x2="800" y2="0" stroke="#ddd" stroke-width="1" opacity="1"/><line transform="translate(0,100)" x2="800" y2="0" stroke="#ddd" stroke-width="1" opacity="1"/><line transform="translate(0,50)" x2="800" y2="0" stroke="#ddd" stroke-width="1" opacity="1"/><line transform="translate(0,0)" x2="800" y2="0" stroke="#ddd" stroke-width="1" opacity="1"/></g></g><path class="foreground" aria-hidden="true" d="" pointer-events="none" display="none"/></g></g><g class="mark-group role-axis" role="graphics-symbol" aria-roledescription="axis" aria-label="X-axis titled 'Horizontal Break (in, catcher POV)' for a linear scale with values from −25 to 25"><g transform="translate(0.5,500.5)"><path class="background" aria-hidden="true" d="M0,0h0v0h0Z" pointer-events="none"/><g><g class="mark-rule role-axis-tick" pointer-events="none"><line transform="translate(16,0)" x2="0" y2="5" stroke="#888" stroke-width="1" opacity="1"/><line transform="translate(48,0)" x2="0" y2="5" stroke="#888" stroke-width="1" opacity="1"/><line transform="translate(80,0)" x2="0" y2="5" stroke="#888" stroke-width="1" opacity="1"/><line transform="translate(112,0)" x2="0" y2="5" stroke="#888" stroke-width="1" opacity="1"/><line transform="translate(144,0)" x2="0" y2="5" stroke="#888" stroke-width="1" opacity="1"/><line transform="translate(176,0)" x2="0" y2="5" stroke="#888" stroke-width="1" opacity="1"/><line transform="translate(208,0)" x2="0" y2="5" stroke="#888" stroke-width="1" opacity="1"/><line transform="translate(240,0)" x2="0" y2="5" stroke="#888" stroke-width="1" opacity="1"/><line transform="translate(272,0)" x2="0" y2="5" stroke="#888" stroke-width="1" opacity="1"/><line transform="translate(304,0)" x2="0" y2="5" stroke="#888" stroke-width="1" opacity="1"/><line transform="translate(336,0)" x2="0" y2="5" stroke="#888" stroke-width="1" opacity="1"/><line transform="translate(368,0)" x2="0" y2="5" stroke="#888" stroke-width="1" opacity="1"/><line transform="translate(400,0)" x2="0" y2="5" stroke="#888" stroke-width="1" opacity="1"/><line transform="translate(432,0)" x2="0" y2="5" stroke="#888" stroke-width="1" opacity="1"/><line transform="translate(464,0)" x2="0" y2="5" stroke="#888" stroke-width="1" opacity="1"/><line transform="translate(496,0)" x2="0" y2="5" stroke="#888" stroke-width="1" opacity="1"/><line transform="translate(528,0)" x2="0" y2="5" stroke="#888" stroke-width="1" opacity="1"/><line transform="translate(560,0)" x2="0" y2="5" stroke="#888" stroke-width="1" opacity="1"/><line transform="translate(592,0)" x2="0" y2="5" stroke="#888" stroke-width="1" opacity="1"/><line transform="translate(624,0)" x2="0" y2="5" stroke="#888" stroke-width="1" opacity="1"/><line transform="translate(656,0)" x2="0" y2="5" stroke="#888" stroke-width="1" opacity="1"/><line transform="translate(688,0)" x2="0" y2="5" stroke="#888" stroke-width="1" opacity="1"/><line transform="translate(720,0)" x2="0" y2="5" stroke="#888" stroke-width="1" opacity="1"/><line transform="translate(752,0)" x2="0" y2="5" stroke="#888" stroke-width="1" opacity="1"/><line transform="translate(784,0)" x2="0" y2="5" stroke="#888" stroke-width="1" opacity="1"/></g><g class="mark-text role-axis-label" pointer-events="none"><text text-anchor="middle" transform="translate(16,16)" font-family="Arial, Helvetica, sans-serif" font-size="12px" fill="#000" opacity="1">−24</text><text text-anchor="middle" transform="translate(48,16)" font-family="Arial, Helvetica, sans-serif" font-size="12px" fill="#000" opacity="1">−22</text><text text-anchor="middle" transform="translate(80,16)" font-family="Arial, Helvetica, sans-serif" font-size="12px" fill="#000" opacity="1">−20</text><text text-anchor="middle" transform="translate(112.00000000000001,16)" font-family="Arial, Helvetica, sans-serif" font-size="12px" fill="#000" opacity="1">−18</text><text text-anchor="middle" transform="translate(144,16)" font-family="Arial, Helvetica, sans-serif" font-size="12px" fill="#000" opacity="1">−16</text><text text-anchor="middle" transform="translate(176,16)" font-family="Arial, Helvetica, sans-serif" font-size="12px" fill="#000" opacity="1">−14</text><text text-anchor="middle" transform="translate(208,16)" font-family="Arial, Helvetica, sans-serif" font-size="12px" fill="#000" opacity="1">−12</text><text text-anchor="middle" transform="translate(240,16)" font-family="Arial, Helvetica, sans-serif" font-size="12px" fill="#000" opacity="1">−10</text><text text-anchor="middle" transform="translate(272,16)" font-family="Arial, Helvetica, sans-serif" font-size="12px" fill="#000" opacity="1">−8</text><text text-anchor="middle" transform="translate(304,16)" font-family="Arial, Helvetica, sans-serif" font-size="12px" fill="#000" opacity="1">−6</text><text text-anchor="middle" transform="translate(336,16)" font-family="Arial, Helvetica, sans-serif" font-size="12px" fill="#000" opacity="1">−4</text><text text-anchor="middle" transform="translate(368,16)" font-family="Arial, Helvetica, sans-serif" font-size="12px" fill="#000" opacity="1">−2</text><text text-anchor="middle" transform="translate(400,16)" font-family="Arial, Helvetica, sans-serif" font-size="12px" fill="#000" opacity="1">0</text><text text-anchor="middle" transform="translate(432,16)" font-family="Arial, Helvetica, sans-serif" font-size="12px" fill="#000" opacity="1">2</text><text text-anchor="middle" transform="translate(463.99999999999994,16)" font-family="Arial, Helvetica, sans-serif" font-size="12px" fill="#000" opacity="1">4</text><text text-anchor="middle" transform="translate(496,16)" font-family="Arial, Helvetica, sans-serif" font-size="12px" fill="#000" opacity="1">6</text><text text-anchor="middle" transform="translate(528,16)" font-family="Arial, Helvetica, sans-serif" font-size="12px" fill="#000" opacity="1">8</text><text text-anchor="middle" transform="translate(560,16)" font-family="Arial, Helvetica, sans-serif" font-size="12px" fill="#000" opacity="1">10</text><text text-anchor="middle" transform="translate(592,16)" font-family="Arial, Helvetica, sans-serif" font-size="12px" fill="#000" opacity="1">12</text><text text-anchor="middle" transform="translate(624,16)" font-family="Arial, Helvetica, sans-serif" font-size="12px" fill="#000" opacity="1">14</text><text text-anchor="middle" transform="translate(656,16)" font-family="Arial, Helvetica, sans-serif" font-size="12px" fill="#000" opacity="1">16</text><text text-anchor="middle" transform="translate(688,16)" font-family="Arial, Helvetica, sans-serif" font-size="12px" fill="#000" opacity="1">18</text><text text-anchor="middle" transform="translate(720,16)" font-family="Arial, Helvetica, sans-serif" font-size="12px" fill="#000" opacity="1">20</text><text text-anchor="middle" transform="translate(752,16)" font-family="Arial, Helvetica, sans-serif" font-size="12px" fill="#000" opacity="1">22</text><text text-anchor="middle" transform="translate(784,16)" font-family="Arial, Helvetica, sans-serif" font-size="12px" fill="#000" opacity="1">24</text></g><g class="mark-rule role-axis-domain" pointer-events="none"><line transform="translate(0,0)" x2="800" y2="0" stroke="#888" stroke-width="1" opacity="1"/></g><g class="mark-text role-axis-title" pointer-events="none"><text text-anchor="middle" transform="translate(400,32)" font-family="Arial, Helvetica, sans-serif" font-size="13px" font-weight="bold" fill="#000" opacity="1">Horizontal Break (in, catcher POV)</text></g></g><path class="foreground" aria-hidden="true" d="" pointer-events="none" display="none"/></g></g><g class="mark-group role-axis" role="graphics-symbol" aria-roledescription="axis" aria-label="Y-axis titled 'Induced Vertical Break (in)' for a linear scale with values from −25 to 25"><g transform="translate(0.5,0.5)"><path class="background" aria-hidden="true" d="M0,0h0v0h0Z" pointer-events="none"/><g><g class="mark-rule role-axis-tick" pointer-events="none"><line transform="translate(0,500)" x2="-5" y2="0" stroke="#888" stroke-width="1" opacity="1"/><line transform="translate(0,450)" x2="-5" y2="0" stroke="#888" stroke-width="1" opacity="1"/><line transform="translate(0,400)" x2="-5" y2="0" stroke="#888" stroke-width="1" opacity="1"/><line transform="translate(0,350)" x2="-5" y2="0" stroke="#888" stroke-width="1" opacity="1"/><line transform="translate(0,300)" x2="-5" y2="0" stroke="#888" stroke-width="1" opacity="1"/><line transform="translate(0,250)" x2="-5" y2="0" stroke="#888" stroke-width="1" opacity="1"/><line transform="translate(0,200)" x2="-5" y2="0" stroke="#888" stroke-width="1" opacity="1"/><line transform="translate(0,150)" x2="-5" y2="0" stroke="#888" stroke-width="1" opacity="1"/><line transform="translate(0,100)" x2="-5" y2="0" stroke="#888" stroke-width="1" opacity="1"/><line transform="translate(0,50)" x2="-5" y2="0" stroke="#888" stroke-width="1" opacity="1"/><line transform="translate(0,0)" x2="-5" y2="0" stroke="#888" stroke-width="1" opacity="1"/></g><g class="mark-text role-axis-label" pointer-events="none"><text text-anchor="end" transform="translate(-7,504)" font-family="Arial, Helvetica, sans-serif" font-size="12px" fill="#000" opacity="1">−25</text><text text-anchor="end" transform="translate(-7,454)" font-family="Arial, Helvetica, sans-serif" font-size="12px" fill="#000" opacity="1">−20</text><text text-anchor="end" transform="translate(-7,404)" font-family="Arial, Helvetica, sans-serif" font-size="12px" fill="#000" opacity="1">−15</text><text text-anchor="end" transform="translate(-7,354)" font-family="Arial, Helvetica, sans-serif" font-size="12px" fill="#000" opacity="1">−10</text><text text-anchor="end" transform="translate(-7,304)" font-family="Arial, Helvetica, sans-serif" font-size="12px" fill="#000" opacity="1">−5</text><text text-anchor="end" transform="translate(-7,254)" font-family="Arial, Helvetica, sans-serif" font-size="12px" fill="#000" opacity="1">0</text><text text-anchor="end" transform="translate(-7,204)" font-family="Arial, Helvetica, sans-serif" font-size="12px" fill="#000" opacity="1">5</text><text text-anchor="end" transform="translate(-7,154.00000000000003)" font-family="Arial, Helvetica, sans-serif" font-size="12px" fill="#000" opacity="1">10</text><text text-anchor="end" transform="translate(-7,103.99999999999997)" font-family="Arial, Helvetica, sans-serif" font-size="12px" fill="#000" opacity="1">15</text><text text-anchor="end" transform="translate(-7,53.999999999999986)" font-family="Arial, Helvetica, sans-serif" font-size="12px" fill="#000" opacity="1">20</text><text text-anchor="end" transform="translate(-7,4)" font-family="Arial, Helvetica, sans-serif" font-size="12px" fill="#000" opacity="1">25</text></g><g class="mark-rule role-axis-domain" pointer-events="none"><line transform="translate(0,500)" x2="0" y2="-500" stroke="#888" stroke-width="1" opacity="1"/></g><g class="mark-text role-axis-title" pointer-events="none"><text text-anchor="middle" transform="translate(-39,250) rotate(-90) translate(0,-3)" font-family="Arial, Helvetica, sans-serif" font-size="13px" font-weight="bold" fill="#000" opacity="1">Induced Vertical Break (in)</text></g></g><path class="foreground" aria-hidden="true" d="" pointer-events="none" display="none"/></g></g><g class="mark-rule role-mark layer_0_marks" role="graphics-symbol" aria-roledescription="rule mark container"><line transform="translate(400,0)" x2="0" y2="500" stroke="#888" stroke-dasharray="4,4"/><line transform="translate(400,0)" x2="0" y2="500" stroke="#888" stroke-dasharray="4,4"/><line transform="translate(400,0)" x2="0" y2="500" stroke="#888" stroke-dasharray="4,4"/><line transform="translate(400,0)" x2="0" y2="500" stroke="#888" stroke-dasharray="4,4"/></g><g class="mark-rule role-mark layer_1_marks" role="graphics-symbol" aria-roledescription="rule mark container"><line transform="translate(800,250)" x2="-800" y2="0" stroke="#888" stroke-dasharray="4,4"/><line transform="translate(800,250)" x2="-800" y2="0" stroke="#888" stroke-dasharray="4,4"/><line transform="translate(800,250)" x2="-800" y2="0" stroke="#888" stroke-dasharray="4,4"/><line transform="translate(800,250)" x2="-800" y2="0" stroke="#888" stroke-dasharray="4,4"/></g><g class="mark-symbol role-mark layer_2_marks" role="graphics-object" aria-roledescription="symbol mark container"><path aria-label="hBreak: −9.6; vBreak: 14.4; pitch_type: FF; Type: FF; Velo (mph): 95.2; H Break (in): −9.6; V Break (in): 14.4" role="graphics-symbol" aria-roledescription="point" transform="translate(246.4,106.00000000000004)" d="M3.873,0A3.873,3.873,0,1,1,-3.873,0A3.873,3.873,0,1,1,3.873,0" fill="#f58518" stroke-width="2" opacity="0.65"/><path aria-label="hBreak: 6; vBreak: 4.8; pitch_type: SL; Type: SL; Velo (mph): 87.1; H Break (in): 6.0; V Break (in): 4.8" role="graphics-symbol" aria-roledescription="point" transform="translate(496,202)" d="M3.873,0A3.873,3.873,0,1,1,-3.873,0A3.873,3.873,0,1,1,3.873,0" fill="#e45756" stroke-width="2" opacity="0.65"/><path aria-label="hBreak: −14.4; vBreak: 7.2; pitch_type: CH; Type: CH; Velo (mph): 89.3; H Break (in): −14.4; V Break (in): 7.2" role="graphics-symbol" aria-roledescription="point" transform="translate(169.60000000000002,178)" d="M3.873,0A3.873,3.873,0,1,1,-3.873,0A3.873,3.873,0,1,1,3.873,0" fill="#4c78a8" stroke-width="2" opacity="0.65"/><path aria-label="hBreak: −8.4; vBreak: 13.2; pitch_type: FF; Type: FF; Velo (mph): 96.1; H Break (in): −8.4; V Break (in): 13.2" role="graphics-symbol" aria-roledescription="point" transform="translate(265.6,118)" d="M3.873,0A3.873,3.873,0,1,1,-3.873,0A3.873,3.873,0,1,1,3.873,0" fill="#f58518" stroke-width="2" opacity="0.65"/></g><g class="mark-symbol role-mark layer_3_marks" role="graphics-object" aria-roledescription="symbol mark container"><path aria-label="Mean of hBreak: −9; Mean of vBreak: 13.8; pitch_type: FF" role="graphics-symbol" aria-roledescription="point" transform="translate(256,112.00000000000004)" d="M-11.18,-4.472L-11.18,4.472L-4.472,4.472L-4.472,11.18L4.472,11.18L4.472,4.472L11.18,4.472L11.18,-4.472L4.472,-4.472L4.472,-11.18L-4.472,-11.18L-4.472,-4.472Z" stroke="#f58518" stroke-width="3"/><path aria-label="Mean of hBreak: 6; Mean of vBreak: 4.8; pitch_type: SL" role="graphics-symbol" aria-roledescription="point" transform="translate(496,202)" d="M-11.18,-4.472L-11.18,4.472L-4.472,4.472L-4.472,11.18L4.472,11.18L4.472,4.472L11.18,4.472L11.18,-4.472L4.472,-4.472L4.472,-11.18L-4.472,-11.18L-4.472,-4.472Z" stroke="#e45756" stroke-width="3"/><path aria-label="Mean of hBreak: −14.4; Mean of vBreak: 7.2; pitch_type: CH" role="graphics-symbol" aria-roledescription="point" transform="translate(169.60000000000002,178)" d="M-11.18,-4.472L-11.18,4.472L-4.472,4.472L-4.472,11.18L4.472,11.18L4.472,4.472L11.18,4.472L11.18,-4.472L4.472,-4.472L4.472,-11.18L-4.472,-11.18L-4.472,-4.472Z" stroke="#4c78a8" stroke-width="3"/></g><g class="mark-group role-legend" role="graphics-symbol" aria-roledescription="legend" aria-label="Symbol legend titled 'Pitch' for fill color and stroke color with 3 values: CH, FF, SL"><g transform="translate(818,0)"><path class="background" aria-hidden="true" d="M0,0h48v62h-48Z" pointer-events="none"/><g><g class="mark-group role-legend-entry"><g transform="translate(0,17)"><path class="background" aria-hidden="true" d="M0,0h0v0h0Z" pointer-events="none"/><g><g class="mark-group role-scope" role="graphics-object" aria-roledescription="group mark container"><g transform="translate(0,0)"><path class="background" aria-hidden="true" d="M0,0h33v12.5h-33Z" pointer-events="none" opacity="1"/><g><g class="mark-symbol role-legend-symbol" pointer-events="none"><path transform="translate(6,6)" d="M5,0A5,5,0,1,1,-5,0A5,5,0,1,1,5,0" fill="#4c78a8" stroke="#4c78a8" stroke-width="1.5" opacity="0.65"/></g><g class="mark-text role-legend-label" pointer-events="none"><text text-anchor="start" transform="translate(16,9)" font-family="Arial, Helvetica, sans-serif" font-size="11px" fill="#000" opacity="1">CH</text></g></g><path class="foreground" aria-hidden="true" d="" pointer-events="none" display="none"/></g><g transform="translate(0,16)"><path class="background" aria-hidden="true" d="M0,0h33v12.5h-33Z" pointer-events="none" opacity="1"/><g><g class="mark-symbol role-legend-symbol" pointer-events="none"><path transform="translate(6,6)" d="M5,0A5,5,0,1,1,-5,0A5,5,0,1,1,5,0" fill="#f58518" stroke="#f58518" stroke-width="1.5" opacity="0.65"/></g><g class="mark-text role-legend-label" pointer-events="none"><text text-anchor="start" transform="translate(16,9)" font-family="Arial, Helvetica, sans-serif" font-size="11px" fill="#000" opacity="1">FF</text></g></g><path class="foreground" aria-hidden="true" d="" pointer-events="none" display="none"/></g><g transform="translate(0,32)"><path class="background" aria-hidden="true" d="M0,0h33v12.5h-33Z" pointer-events="none" opacity="1"/><g><g class="mark-symbol role-legend-symbol" pointer-events="none"><path transform="translate(6,6)" d="M5,0A5,5,0,1,1,-5,0A5,5,0,1,1,5,0" fill="#e45756" stroke="#e45756" stroke-width="1.5" opacity="0.65"/></g><g class="mark-text role-legend-label" pointer-events="none"><text text-anchor="start" transform="translate(16,9)" font-family="Arial, Helvetica, sans-serif" font-size="11px" fill="#000" opacity="1">SL</text></g></g><path class="foreground" aria-hidden="true" d="" pointer-events="none" display="none"/></g></g></g><path class="foreground" aria-hidden="true" d="" pointer-events="none" display="none"/></g></g><g class="mark-text role-legend-title" pointer-events="none"><text text-anchor="start" transform="translate(0,9)" font-family="Arial, Helvetica, sans-serif" font-size="12px" font-weight="bold" fill="#000" opacity="1">Pitch</text></g></g><path class="foreground" aria-hidden="true" d="" pointer-events="none" display="none"/></g></g><g class="mark-group role-title"><g transform="translate(-52,-26)"><path class="background" aria-hidden="true" d="M0,0h0v0h0Z" pointer-events="none"/><g><g class="mark-text role-title-text" role="graphics-symbol" aria-roledescription="title" aria-label="Title text 'Demo Pitcher — Movement Chart (Fixture)'" pointer-events="none"><text text-anchor="start" transform="translate(0,13)" font-family="Arial, Helvetica, sans-serif" font-size="16px" font-weight="bold" fill="#000" opacity="1">Demo Pitcher — Movement Chart (Fixture)</text></g></g><path class="foreground" aria-hidden="true" d="" pointer-events="none" display="none"/></g></g></g><path class="foreground" aria-hidden="true" d="" display="none"/></g></g></g></svg>