<svg xmlns="http://www.w3.org/2000/svg" xmlns:xlink="http://www.w3.org/1999/xlink" version="1.1" class="marks" width="708" height="418" viewBox="0 0 708 418"><rect width="708" height="418" fill="white"/><g fill="none" stroke-miterlimit="10" transform="translate(92,39)"><g class="mark-group role-frame root" role="graphics-object" aria-roledescription="group mark container"><g transform="translate(0,0)"><path class="background" aria-hidden="true" d="M0,0h0v0h0Z"/><g><g class="mark-group role-row-header row_header" role="graphics-object" aria-roledescription="group mark container"><g transform="translate(-46,0)"><path class="background" aria-hidden="true" d="M0,0h0v150h0Z"/><g><g class="mark-group role-title"><g transform="translate(-34,75)"><path class="background" aria-hidden="true" d="M0,0h0v0h0Z" pointer-events="none"/><g><g class="mark-text role-title-text" role="graphics-symbol" aria-roledescription="title" aria-label="Title text 'AVG'" pointer-events="none"><text text-anchor="start" transform="translate(0,3)" font-family="Arial, Helvetica, sans-serif" font-size="10px" font-weight="bold" fill="#000" opacity="1">AVG</text></g></g><path class="foreground" aria-hidden="true" d="" pointer-events="none" display="none"/></g></g></g><path class="foreground" aria-hidden="true" d="" display="none"/></g><g transform="translate(-46,178)"><path class="background" aria-hidden="true" d="M0,0h0v150h0Z"/><g><g class="mark-group role-title"><g transform="translate(-34,75)"><path class="background" aria-hidden="true" d="M0,0h0v0h0Z" pointer-events="none"/><g><g class="mark-text role-title-text" role="graphics-symbol" aria-roledescription="title" aria-label="Title text 'SLG'" pointer-events="none"><text text-anchor="start" transform="translate(0,3)" font-family="Arial, Helvetica, sans-serif" font-size="10px" font-weight="bold" fill="#000" opacity="1">SLG</text></g></g><path class="foreground" aria-hidden="true" d="" pointer-events="none" display="none"/></g></g></g><path class="foreground" aria-hidden="true" d="" display="none"/></g></g><g class="mark-group role-column-footer column_footer" role="graphics-object" aria-roledescription="group mark container"><g transform="translate(0,332)"><path class="background" aria-hidden="true" d="M0,0h600v0h-600Z"/><g><g class="mark-group role-axis" role="graphics-symbol" aria-roledescription="axis" aria-label="X-axis titled 'Window End' for a time scale with values from April 30 to May 28"><g transform="translate(0.5,0.5)"><path class="background" aria-hidden="true" d="M0,0h0v0h0Z" pointer-events="none"/><g><g class="mark-rule role-axis-tick" pointer-events="none"><line transform="translate(6,0)" x2="0" y2="5" stroke="#888" stroke-width="1" opacity="1"/><line transform="translate(49,0)" x2="0" y2="5" stroke="#888" stroke-width="1" opacity="1"/><line transform="translate(92,0)" x2="0" y2="5" stroke="#888" stroke-width="1" opacity="1"/><line transform="translate(135,0)" x2="0" y2="5" stroke="#888" stroke-width="1" opacity="1"/><line transform="translate(178,0)" x2="0" y2="5" stroke="#888" stroke-width="1" opacity="1"/><line transform="translate(221,0)" x2="0" y2="5" stroke="#888" stroke-width="1" opacity="1"/><line transform="translate(263,0)" x2="0" y2="5" stroke="#888" stroke-width="1" opacity="1"/><line transform="translate(306,0)" x2="0" y2="5" stroke="#888" stroke-width="1" opacity="1"/><line transform="translate(349,0)" x2="0" y2="5" stroke="#888" stroke-width="1" opacity="1"/><line transform="translate(392,0)" x2="0" y2="5" stroke="#888" stroke-width="1" opacity="1"/><line transform="translate(435,0)" x2="0" y2="5" stroke="#888" stroke-width="1" opacity="1"/><line transform="translate(478,0)" x2="0" y2="5" stroke="#888" stroke-width="1" opacity="1"/><line transform="translate(521,0)" x2="0" y2="5" stroke="#888" stroke-width="1" opacity="1"/><line transform="translate(563,0)" x2="0" y2="5" stroke="#888" stroke-width="1" opacity="1"/></g><g class="mark-text role-axis-label" pointer-events="none"><text text-anchor="middle" transform="translate(6.25,16)" font-family="Arial, Helvetica, sans-serif" font-size="12px" fill="#000" opacity="1">May 01</text><text text-anchor="middle" transform="translate(49.107142857142854,16)" font-family="Arial, Helvetica, sans-serif" font-size="12px" fill="#000" opacity="0">May 03</text><text text-anchor="middle" transform="translate(91.96428571428572,16)" font-family="Arial, Helvetica, sans-serif" font-size="12px" fill="#000" opacity="1">May 05</text><text text-anchor="middle" transform="translate(134.82142857142858,16)" font-family="Arial, Helvetica, sans-serif" font-size="12px" fill="#000" opacity="0">May 07</text><text text-anchor="middle" transform="translate(177.67857142857142,16)" font-family="Arial, Helvetica, sans-serif" font-size="12px" fill="#000" opacity="1">May 09</text><text text-anchor="middle" transform="translate(220.5357142857143,16)" font-family="Arial, Helvetica, sans-serif" font-size="12px" fill="#000" opacity="0">May 11</text><text text-anchor="middle" transform="translate(263.39285714285717,16)" font-family="Arial, Helvetica, sans-serif" font-size="12px" fill="#000" opacity="1">May 13</text><text text-anchor="middle" transform="translate(306.25,16)" font-family="Arial, Helvetica, sans-serif" font-size="12px" fill="#000" opacity="0">May 15</text><text text-anchor="middle" transform="translate(349.1071428571429,16)" font-family="Arial, Helvetica, sans-serif" font-size="12px" fill="#000" opacity="1">May 17</text><text text-anchor="middle" transform="translate(391.9642857142857,16)" font-family="Arial, Helvetica, sans-serif" font-size="12px" fill="#000" opacity="0">May 19</text><text text-anchor="middle" transform="translate(434.82142857142856,16)" font-family="Arial, Helvetica, sans-serif" font-size="12px" fill="#000" opacity="1">May 21</text><text text-anchor="middle" transform="translate(477.6785714285714,16)" font-family="Arial, Helvetica, sans-serif" font-size="12px" fill="#000" opacity="0">May 23</text><text text-anchor="middle" transform="translate(520.5357142857143,16)" font-family="Arial, Helvetica, sans-serif" font-size="12px" fill="#000" opacity="1">May 25</text><text text-anchor="middle" transform="translate(563.3928571428571,16)" font-family="Arial, Helvetica, sans-serif" font-size="12px" fill="#000" opacity="0">May 27</text></g><g class="mark-rule role-axis-domain" pointer-events="none"><line transform="translate(0,0)" x2="600" y2="0" stroke="#888" stroke-width="1" opacity="1"/></g><g class="mark-text role-axis-title" pointer-events="none"><text text-anchor="middle" transform="translate(300,32)" font-family="Arial, Helvetica, sans-serif" font-size="13px" font-weight="bold" fill="#000" opacity="1">Window End</text></g></g><path class="foreground" aria-hidden="true" d="" pointer-events="none" display="none"/></g></g></g><path class="foreground" aria-hidden="true" d="" display="none"/></g></g><g class="mark-group role-scope cell" role="graphics-object" aria-roledescription="group mark container"><g transform="translate(0,0)"><path class="background" aria-hidden="true" d="M0.5,0.5h600v150h-600Z"/><g><g class="mark-group role-axis" aria-hidden="true"><g transform="translate(0.5,150.5)"><path class="background" aria-hidden="true" d="M0,0h0v0h0Z" pointer-events="none"/><g><g class="mark-rule role-axis-grid" pointer-events="none"><line transform="translate(6,-150)" x2="0" y2="150" stroke="#ddd" stroke-width="1" opacity="1"/><line transform="translate(49,-150)" x2="0" y2="150" stroke="#ddd" stroke-width="1" opacity="1"/><line transform="translate(92,-150)" x2="0" y2="150" stroke="#ddd" stroke-width="1" opacity="1"/><line transform="translate(135,-150)" x2="0" y2="150" stroke="#ddd" stroke-width="1" opacity="1"/><line transform="translate(178,-150)" x2="0" y2="150" stroke="#ddd" stroke-width="1" opacity="1"/><line transform="translate(221,-150)" x2="0" y2="150" stroke="#ddd" stroke-width="1" opacity="1"/><line transform="translate(263,-150)" x2="0" y2="150" stroke="#ddd" stroke-width="1" opacity="1"/><line transform="translate(306,-150)" x2="0" y2="150" stroke="#ddd" stroke-width="1" opacity="1"/><line transform="translate(349,-150)" x2="0" y2="150" stroke="#ddd" stroke-width="1" opacity="1"/><line transform="translate(392,-150)" x2="0" y2="150" stroke="#ddd" stroke-width="1" opacity="1"/><line transform="translate(435,-150)" x2="0" y2="150" stroke="#ddd" stroke-width="1" opacity="1"/><line transform="translate(478,-150)" x2="0" y2="150" stroke="#ddd" stroke-width="1" opacity="1"/><line transform="translate(521,-150)" x2="0" y2="150" stroke="#ddd" stroke-width="1" opacity="1"/><line transform="translate(563,-150)" x2="0" y2="150" stroke="#ddd" stroke-width="1" opacity="1"/></g></g><path class="foreground" aria-hidden="true" d="" pointer-events="none" display="none"/></g></g><g class="mark-group role-axis" aria-hidden="true"><g transform="translate(0.5,0.5)"><path class="background" aria-hidden="true" d="M0,0h0v0h0Z" pointer-events="none"/><g><g class="mark-rule role-axis-grid" pointer-events="none"><line transform="translate(0,129)" x2="600" y2="0" stroke="#ddd" stroke-width="1" opacity="1"/><line transform="translate(0,86)" x2="600" y2="0" stroke="#ddd" stroke-width="1" opacity="1"/><line transform="translate(0,43)" x2="600" y2="0" stroke="#ddd" stroke-width="1" opacity="1"/><line transform="translate(0,0)" x2="600" y2="0" stroke="#ddd" stroke-width="1" opacity="1"/></g></g><path class="foreground" aria-hidden="true" d="" pointer-events="none" display="none"/></g></g><g class="mark-group role-axis" role="graphics-symbol" aria-roledescription="axis" aria-label="Y-axis for a linear scale with values from 0.295 to 0.330"><g transform="translate(0.5,0.5)"><path class="background" aria-hidden="true" d="M0,0h0v0h0Z" pointer-events="none"/><g><g class="mark-rule role-axis-tick" pointer-events="none"><line transform="translate(0,129)" x2="-5" y2="0" stroke="#888" stroke-width="1" opacity="1"/><line transform="translate(0,86)" x2="-5" y2="0" stroke="#888" stroke-width="1" opacity="1"/><line transform="translate(0,43)" x2="-5" y2="0" stroke="#888" stroke-width="1" opacity="1"/><line transform="translate(0,0)" x2="-5" y2="0" stroke="#888" stroke-width="1" opacity="1"/></g><g class="mark-text role-axis-label" pointer-events="none"><text text-anchor="end" transform="translate(-7,132.57142857142858)" font-family="Arial, Helvetica, sans-serif" font-size="12px" fill="#000" opacity="1">0.30</text><text text-anchor="end" transform="translate(-7,89.71428571428571)" font-family="Arial, Helvetica, sans-serif" font-size="12px" fill="#000" opacity="1">0.31</text><text text-anchor="end" transform="translate(-7,46.857142857142854)" font-family="Arial, Helvetica, sans-serif" font-size="12px" fill="#000" opacity="1">0.32</text><text text-anchor="end" transform="translate(-7,4)" font-family="Arial, Helvetica, sans-serif" font-size="12px" fill="#000" opacity="1">0.33</text></g><g class="mark-rule role-axis-domain" pointer-events="none"><line transform="translate(0,150)" x2="0" y2="-150" stroke="#888" stroke-width="1" opacity="1"/></g></g><path class="foreground" aria-hidden="true" d="" pointer-events="none" display="none"/></g></g><g class="mark-group role-scope child_layer_0_layer_0_pathgroup" role="graphics-object" aria-roledescription="group mark container"><g transform="translate(0,0)"><path class="background" aria-hidden="true" d="M0,0h600v150h-600Z"/><g><g class="mark-line role-mark child_layer_0_layer_0_marks" role="graphics-object" aria-roledescription="line mark container"><path aria-label="window_end: Apr 30; value: 0.3; metric: AVG; Metric: AVG; Value: 0.300" role="graphics-symbol" aria-roledescription="line mark" d="M0,128.571L150,77.143L300,137.143L450,21.429L600,0" stroke="#4c78a8" stroke-width="2"/></g></g><path class="foreground" aria-hidden="true" d="" display="none"/></g></g><g class="mark-symbol role-mark child_layer_0_layer_1_marks" role="graphics-object" aria-roledescription="symbol mark container"><path aria-label="window_end: Apr 30; value: 0.3; metric: AVG; Metric: AVG; Value: 0.300" role="graphics-symbol" aria-roledescription="point" transform="translate(0,128.57142857142858)" d="M2.739,0A2.739,2.739,0,1,1,-2.739,0A2.739,2.739,0,1,1,2.739,0" fill="#4c78a8" stroke-width="2" opacity="1"/><path aria-label="window_end: May 07; value: 0.312; metric: AVG; Metric: AVG; Value: 0.312" role="graphics-symbol" aria-roledescription="point" transform="translate(150,77.14285714285714)" d="M2.739,0A2.739,2.739,0,1,1,-2.739,0A2.739,2.739,0,1,1,2.739,0" fill="#4c78a8" stroke-width="2" opacity="1"/><path aria-label="window_end: May 14; value: 0.298; metric: AVG; Metric: AVG; Value: 0.298" role="graphics-symbol" aria-roledescription="point" transform="translate(300,137.14285714285714)" d="M2.739,0A2.739,2.739,0,1,1,-2.739,0A2.739,2.739,0,1,1,2.739,0" fill="#4c78a8" stroke-width="2" opacity="1"/><path aria-label="window_end: May 21; value: 0.325; metric: AVG; Metric: AVG; Value: 0.325" role="graphics-symbol" aria-roledescription="point" transform="translate(450,21.428571428571434)" d="M2.739,0A2.739,2.739,0,1,1,-2.739,0A2.739,2.739,0,1,1,2.739,0" fill="#4c78a8" stroke-width="2" opacity="1"/><path aria-label="window_end: May 28; value: 0.33; metric: AVG; Metric: AVG; Value: 0.330" role="graphics-symbol" aria-roledescription="point" transform="translate(600,0)" d="M2.739,0A2.739,2.739,0,1,1,-2.739,0A2.739,2.739,0,1,1,2.739,0" fill="#4c78a8" stroke-width="2" opacity="1"/></g><g class="mark-rule role-mark child_layer_1_marks" role="graphics-object" aria-roledescription="rule mark container"><line aria-label="Mean of value: 0.313; metric: AVG" role="graphics-symbol" aria-roledescription="rule mark" transform="translate(600,72.85714285714286)" x2="-600" y2="0" stroke="#4c78a8" stroke-dasharray="4,4" opacity="0.4"/></g></g><path class="foreground" aria-hidden="true" d="" display="none"/></g><g transform="translate(0,178)"><path class="background" aria-hidden="true" d="M0.5,0.5h600v150h-600Z"/><g><g class="mark-group role-axis" aria-hidden="true"><g transform="translate(0.5,150.5)"><path class="background" aria-hidden="true" d="M0,0h0v0h0Z" pointer-events="none"/><g><g class="mark-rule role-axis-grid" pointer-events="none"><line transform="translate(6,-150)" x2="0" y2="150" stroke="#ddd" stroke-width="1" opacity="1"/><line transform="translate(49,-150)" x2="0" y2="150" stroke="#ddd" stroke-width="1" opacity="1"/><line transform="translate(92,-150)" x2="0" y2="150" stroke="#ddd" stroke-width="1" opacity="1"/><line transform="translate(135,-150)" x2="0" y2="150" stroke="#ddd" stroke-width="1" opacity="1"/><line transform="translate(178,-150)" x2="0" y2="150" stroke="#ddd" stroke-width="1" opacity="1"/><line transform="translate(221,-150)" x2="0" y2="150" stroke="#ddd" stroke-width="1" opacity="1"/><line transform="translate(263,-150)" x2="0" y2="150" stroke="#ddd" stroke-width="1" opacity="1"/><line transform="translate(306,-150)" x2="0" y2="150" stroke="#ddd" stroke-width="1" opacity="1"/><line transform="translate(349,-150)" x2="0" y2="150" stroke="#ddd" stroke-width="1" opacity="1"/><line transform="translate(392,-150)" x2="0" y2="150" stroke="#ddd" stroke-width="1" opacity="1"/><line transform="translate(435,-150)" x2="0" y2="150" stroke="#ddd" stroke-width="1" opacity="1"/><line transform="translate(478,-150)" x2="0" y2="150" stroke="#ddd" stroke-width="1" opacity="1"/><line transform="translate(521,-150)" x2="0" y2="150" stroke="#ddd" stroke-width="1" opacity="1"/><line transform="translate(563,-150)" x2="0" y2="150" stroke="#ddd" stroke-width="1" opacity="1"/></g></g><path class="foreground" aria-hidden="true" d="" pointer-events="none" display="none"/></g></g><g class="mark-group role-axis" aria-hidden="true"><g transform="translate(0.5,0.5)"><path class="background" aria-hidden="true" d="M0,0h0v0h0Z" pointer-events="none"/><g><g class="mark-rule role-axis-grid" pointer-events="none"><line transform="translate(0,129)" x2="600" y2="0" stroke="#ddd" stroke-width="1" opacity="1"/><line transform="translate(0,86)" x2="600" y2="0" stroke="#ddd" stroke-width="1" opacity="1"/><line transform="translate(0,43)" x2="600" y2="0" stroke="#ddd" stroke-width="1" opacity="1"/><line transform="translate(0,0)" x2="600" y2="0" stroke="#ddd" stroke-width="1" opacity="1"/></g></g><path class="foreground" aria-hidden="true" d="" pointer-events="none" display="none"/></g></g><g class="mark-group role-axis" role="graphics-symbol" aria-roledescription="axis" aria-label="Y-axis for a linear scale with values from 0.51 to 0.58"><g transform="translate(0.5,0.5)"><path class="background" aria-hidden="true" d="M0,0h0v0h0Z" pointer-events="none"/><g><g class="mark-rule role-axis-tick" pointer-events="none"><line transform="translate(0,129)" x2="-5" y2="0" stroke="#888" stroke-width="1" opacity="1"/><line transform="translate(0,86)" x2="-5" y2="0" stroke="#888" stroke-width="1" opacity="1"/><line transform="translate(0,43)" x2="-5" y2="0" stroke="#888" stroke-width="1" opacity="1"/><line transform="translate(0,0)" x2="-5" y2="0" stroke="#888" stroke-width="1" opacity="1"/></g><g class="mark-text role-axis-label" pointer-events="none"><text text-anchor="end" transform="translate(-7,132.57142857142856)" font-family="Arial, Helvetica, sans-serif" font-size="12px" fill="#000" opacity="1">0.52</text><text text-anchor="end" transform="translate(-7,89.71428571428561)" font-family="Arial, Helvetica, sans-serif" font-size="12px" fill="#000" opacity="1">0.54</text><text text-anchor="end" transform="translate(-7,46.85714285714269)" font-family="Arial, Helvetica, sans-serif" font-size="12px" fill="#000" opacity="1">0.56</text><text text-anchor="end" transform="translate(-7,4)" font-family="Arial, Helvetica, sans-serif" font-size="12px" fill="#000" opacity="1">0.58</text></g><g class="mark-rule role-axis-domain" pointer-events="none"><line transform="translate(0,150)" x2="0" y2="-150" stroke="#888" stroke-width="1" opacity="1"/></g></g><path class="foreground" aria-hidden="true" d="" pointer-events="none" display="none"/></g></g><g class="mark-group role-scope child_layer_0_layer_0_pathgroup" role="graphics-object" aria-roledescription="group mark container"><g transform="translate(0,0)"><path class="background" aria-hidden="true" d="M0,0h600v150h-600Z"/><g><g class="mark-line role-mark child_layer_0_layer_0_marks" role="graphics-object" aria-roledescription="line mark container"><path aria-label="window_end: Apr 30; value: 0.52; metric: SLG; Metric: SLG; Value: 0.520" role="graphics-symbol" aria-roledescription="line mark" d="M0,128.571L150,85.714L300,150L450,42.857L600,0" stroke="#f58518" stroke-width="2"/></g></g><path class="foreground" aria-hidden="true" d="" display="none"/></g></g><g class="mark-symbol role-mark child_layer_0_layer_1_marks" role="graphics-object" aria-roledescription="symbol mark container"><path aria-label="window_end: Apr 30; value: 0.52; metric: SLG; Metric: SLG; Value: 0.520" role="graphics-symbol" aria-roledescription="point" transform="translate(0,128.57142857142856)" d="M2.739,0A2.739,2.739,0,1,1,-2.739,0A2.739,2.739,0,1,1,2.739,0" fill="#f58518" stroke-width="2" opacity="1"/><path aria-label="window_end: May 07; value: 0.54; metric: SLG; Metric: SLG; Value: 0.540" role="graphics-symbol" aria-roledescription="point" transform="translate(150,85.71428571428561)" d="M2.739,0A2.739,2.739,0,1,1,-2.739,0A2.739,2.739,0,1,1,2.739,0" fill="#f58518" stroke-width="2" opacity="1"/><path aria-label="window_end: May 14; value: 0.51; metric: SLG; Metric: SLG; Value: 0.510" role="graphics-symbol" aria-roledescription="point" transform="translate(300,150)" d="M2.739,0A2.739,2.739,0,1,1,-2.739,0A2.739,2.739,0,1,1,2.739,0" fill="#f58518" stroke-width="2" opacity="1"/><path aria-label="window_end: May 21; value: 0.56; metric: SLG; Metric: SLG; Value: 0.560" role="graphics-symbol" aria-roledescription="point" transform="translate(450,42.85714285714269)" d="M2.739,0A2.739,2.739,0,1,1,-2.739,0A2.739,2.739,0,1,1,2.739,0" fill="#f58518" stroke-width="2" opacity="1"/><path aria-label="window_end: May 28; value: 0.58; metric: SLG; Metric: SLG; Value: 0.580" role="graphics-symbol" aria-roledescription="point" transform="translate(600,0)" d="M2.739,0A2.739,2.739,0,1,1,-2.739,0A2.739,2.739,0,1,1,2.739,0" fill="#f58518" stroke-width="2" opacity="1"/></g><g class="mark-rule role-mark child_layer_1_marks" role="graphics-object" aria-roledescription="rule mark container"><line aria-label="Mean of value: 0.542; metric: SLG" role="graphics-symbol" aria-roledescription="rule mark" transform="translate(600,81.42857142857156)" x2="-600" y2="0" stroke="#f58518" stroke-dasharray="4,4" opacity="0.4"/></g></g><path class="foreground" aria-hidden="true" d="" display="none"/></g></g><g class="mark-group role-title"><g transform="translate(-80,-27)"><path class="background" aria-hidden="true" d="M0,0h0v0h0Z" pointer-events="none"/><g><g class="mark-text role-title-text" role="graphics-symbol" aria-roledescription="title" aria-label="Title text 'Demo Hitter — Rolling Chart (Fixture)'" pointer-events="none"><text text-anchor="start" transform="translate(0,13)" font-family="Arial, Helvetica, sans-serif" font-size="16px" font-weight="bold" fill="#000" opacity="1">Demo Hitter — Rolling Chart (Fixture)</text></g></g><path class="foreground" aria-hidden="true" d="" pointer-events="none" display="none"/></g></g></g><path class="foreground" aria-hidden="true" d="" display="none"/></g></g></g></svg>