<svg xmlns="http://www.w3.org/2000/svg" xmlns:xlink="http://www.w3.org/1999/xlink" version="1.1" class="marks" width="1016" height="544" viewBox="0 0 1016 544"><rect width="1016" height="544" fill="white"/><g fill="none" stroke-miterlimit="10" transform="translate(12,32)"><g class="mark-group role-frame root" role="graphics-object" aria-roledescription="group mark container"><g transform="translate(0,0)"><path class="background" aria-hidden="true" d="M0.5,0.5h800v500h-800Z"/><g><g class="mark-symbol role-mark layer_0_marks" role="graphics-object" aria-roledescription="symbol mark container"><path aria-label="x: −75.55; y: 170.5; events: single; launch_speed: 102.3; Result: single; EV: 102.3; LA: 18" role="graphics-symbol" aria-roledescription="circle" transform="translate(339.56,299.54545454545456)" d="M8.9,0A8.9,8.9,0,1,1,-8.9,0A8.9,8.9,0,1,1,8.9,0" fill="#4e79a7" stroke="#333" stroke-width="0.5" opacity="0.75"/><path aria-label="x: 74.7; y: 309.5; events: home_run; launch_speed: 108.5; Result: home_run; EV: 108.5; LA: 28" role="graphics-symbol" aria-roledescription="circle" transform="translate(459.7600000000001,173.18181818181816)" d="M9.453,0A9.453,9.453,0,1,1,-9.453,0A9.453,9.453,0,1,1,9.453,0" fill="#e15759" stroke="#333" stroke-width="0.5" opacity="0.75"/><path aria-label="x: −49.55; y: 59; events: field_out; launch_speed: 88.2; Result: field_out; EV: 88.2; LA: −5" role="graphics-symbol" aria-roledescription="circle" transform="translate(360.35999999999996,400.90909090909093)" d="M7.493,0A7.493,7.493,0,1,1,-7.493,0A7.493,7.493,0,1,1,7.493,0" fill="#bab0ac" stroke="#333" stroke-width="0.5" opacity="0.75"/><path aria-label="x: 11.45; y: 210; events: double; launch_speed: 95; Result: double; EV: 95.0; LA: 22" role="graphics-symbol" aria-roledescription="circle" transform="translate(409.15999999999997,263.6363636363637)" d="M8.202,0A8.202,8.202,0,1,1,-8.202,0A8.202,8.202,0,1,1,8.202,0" fill="#59a14f" stroke="#333" stroke-width="0.5" opacity="0.75"/></g><g class="mark-line role-mark layer_1_marks" role="graphics-object" aria-roledescription="line mark container"><path aria-label="x: −297; y: 297" role="graphics-symbol" aria-roledescription="line mark" d="M162.4,184.545L400,454.545" stroke="#888" stroke-width="1.5"/></g><g class="mark-line role-mark layer_2_marks" role="graphics-object" aria-roledescription="line mark container"><path aria-label="x: 0; y: 0" role="graphics-symbol" aria-roledescription="line mark" d="M400,454.545L637.6,184.545" stroke="#888" stroke-width="1.5"/></g><g class="mark-line role-mark layer_3_marks" role="graphics-object" aria-roledescription="line mark container"><path aria-label="x: −296.984848098; y: 296.984848098" role="graphics-symbol" aria-roledescription="line mark" d="M162.412,184.559L173.002,173.04L184.023,162.056L195.456,151.629L207.278,141.778L219.467,132.523L232,123.881L244.852,115.869L258,108.501L271.418,101.791L285.081,95.754L298.963,90.399L313.037,85.737L327.276,81.778L341.654,78.528L356.143,75.994L370.716,74.18L385.344,73.091L400,72.727L414.656,73.091L429.284,74.18L443.857,75.994L458.346,78.528L472.724,81.778L486.963,85.737L501.037,90.399L514.919,95.754L528.582,101.791L542,108.501L555.148,115.869L568,123.881L580.533,132.523L592.722,141.778L604.544,151.629L615.977,162.056L626.998,173.04L637.588,184.559" stroke="#999" stroke-width="1.5" stroke-dasharray="6,4"/></g><g class="mark-group role-legend" role="graphics-symbol" aria-roledescription="legend" aria-label="Symbol legend titled 'Result' for fill color with 7 values: single, double, triple, home_run, field_out, force_out, grounded_into_double_play"><g transform="translate(818,0)"><path class="background" aria-hidden="true" d="M0,0h174v126h-174Z" pointer-events="none"/><g><g class="mark-group role-legend-entry"><g transform="translate(0,17)"><path class="background" aria-hidden="true" d="M0,0h0v0h0Z" pointer-events="none"/><g><g class="mark-group role-scope" role="graphics-object" aria-roledescription="group mark container"><g transform="translate(0,0)"><path class="background" aria-hidden="true" d="M0,0h174v12.5h-174Z" pointer-events="none" opacity="1"/><g><g class="mark-symbol role-legend-symbol" pointer-events="none"><path transform="translate(6,6)" d="M5,0A5,5,0,1,1,-5,0A5,5,0,1,1,5,0" fill="#4e79a7" stroke="#333" stroke-width="1.5" opacity="0.75"/></g><g class="mark-text role-legend-label" pointer-events="none"><text text-anchor="start" transform="translate(16,9)" font-family="Arial, Helvetica, sans-serif" font-size="11px" fill="#000" opacity="1">single</text></g></g><path class="foreground" aria-hidden="true" d="" pointer-events="none" display="none"/></g><g transform="translate(0,16)"><path class="background" aria-hidden="true" d="M0,0h174v12.5h-174Z" pointer-events="none" opacity="1"/><g><g class="mark-symbol role-legend-symbol" pointer-events="none"><path transform="translate(6,6)" d="M5,0A5,5,0,1,1,-5,0A5,5,0,1,1,5,0" fill="#59a14f" stroke="#333" stroke-width="1.5" opacity="0.75"/></g><g class="mark-text role-legend-label" pointer-events="none"><text text-anchor="start" transform="translate(16,9)" font-family="Arial, Helvetica, sans-serif" font-size="11px" fill="#000" opacity="1">double</text></g></g><path class="foreground" aria-hidden="true" d="" pointer-events="none" display="none"/></g><g transform="translate(0,32)"><path class="background" aria-hidden="true" d="M0,0h174v12.5h-174Z" pointer-events="none" opacity="1"/><g><g class="mark-symbol role-legend-symbol" pointer-events="none"><path transform="translate(6,6)" d="M5,0A5,5,0,1,1,-5,0A5,5,0,1,1,5,0" fill="#edc948" stroke="#333" stroke-width="1.5" opacity="0.75"/></g><g class="mark-text role-legend-label" pointer-events="none"><text text-anchor="start" transform="translate(16,9)" font-family="Arial, Helvetica, sans-serif" font-size="11px" fill="#000" opacity="1">triple</text></g></g><path class="foreground" aria-hidden="true" d="" pointer-events="none" display="none"/></g><g transform="translate(0,48)"><path class="background" aria-hidden="true" d="M0,0h174v12.5h-174Z" pointer-events="none" opacity="1"/><g><g class="mark-symbol role-legend-symbol" pointer-events="none"><path transform="translate(6,6)" d="M5,0A5,5,0,1,1,-5,0A5,5,0,1,1,5,0" fill="#e15759" stroke="#333" stroke-width="1.5" opacity="0.75"/></g><g class="mark-text role-legend-label" pointer-events="none"><text text-anchor="start" transform="translate(16,9)" font-family="Arial, Helvetica, sans-serif" font-size="11px" fill="#000" opacity="1">home_run</text></g></g><path class="foreground" aria-hidden="true" d="" pointer-events="none" display="none"/></g><g transform="translate(0,64)"><path class="background" aria-hidden="true" d="M0,0h174v12.5h-174Z" pointer-events="none" opacity="1"/><g><g class="mark-symbol role-legend-symbol" pointer-events="none"><path transform="translate(6,6)" d="M5,0A5,5,0,1,1,-5,0A5,5,0,1,1,5,0" fill="#bab0ac" stroke="#333" stroke-width="1.5" opacity="0.75"/></g><g class="mark-text role-legend-label" pointer-events="none"><text text-anchor="start" transform="translate(16,9)" font-family="Arial, Helvetica, sans-serif" font-size="11px" fill="#000" opacity="1">field_out</text></g></g><path class="foreground" aria-hidden="true" d="" pointer-events="none" display="none"/></g><g transform="translate(0,80)"><path class="background" aria-hidden="true" d="M0,0h174v12.5h-174Z" pointer-events="none" opacity="1"/><g><g class="mark-symbol role-legend-symbol" pointer-events="none"><path transform="translate(6,6)" d="M5,0A5,5,0,1,1,-5,0A5,5,0,1,1,5,0" fill="#bab0ac" stroke="#333" stroke-width="1.5" opacity="0.75"/></g><g class="mark-text role-legend-label" pointer-events="none"><text text-anchor="start" transform="translate(16,9)" font-family="Arial, Helvetica, sans-serif" font-size="11px" fill="#000" opacity="1">force_out</text></g></g><path class="foreground" aria-hidden="true" d="" pointer-events="none" display="none"/></g><g transform="translate(0,96)"><path class="background" aria-hidden="true" d="M0,0h174v12.5h-174Z" pointer-events="none" opacity="1"/><g><g class="mark-symbol role-legend-symbol" pointer-events="none"><path transform="translate(6,6)" d="M5,0A5,5,0,1,1,-5,0A5,5,0,1,1,5,0" fill="#bab0ac" stroke="#333" stroke-width="1.5" opacity="0.75"/></g><g class="mark-text role-legend-label" pointer-events="none"><text text-anchor="start" transform="translate(16,9)" font-family="Arial, Helvetica, sans-serif" font-size="11px" fill="#000" opacity="1">grounded_into_dou…</text></g></g><path class="foreground" aria-hidden="true" d="" pointer-events="none" display="none"/></g></g></g><path class="foreground" aria-hidden="true" d="" pointer-events="none" display="none"/></g></g><g class="mark-text role-legend-title" pointer-events="none"><text text-anchor="start" transform="translate(0,9)" font-family="Arial, Helvetica, sans-serif" font-size="12px" font-weight="bold" fill="#000" opacity="1">Result</text></g></g><path class="foreground" aria-hidden="true" d="" pointer-events="none" display="none"/></g></g><g class="mark-group role-legend" role="graphics-symbol" aria-roledescription="legend" aria-label="Symbol legend titled 'Exit Velo' for size with values from 60 to 115"><g transform="translate(818,134)"><path class="background" aria-hidden="true" d="M0,0h86v132h-86Z" pointer-events="none"/><g><g class="mark-group role-legend-entry"><g transform="translate(0,17)"><path class="background" aria-hidden="true" d="M0,0h0v0h0Z" pointer-events="none"/><g><g class="mark-group role-scope" role="graphics-object" aria-roledescription="group mark container"><g transform="translate(0,0)"><path class="background" aria-hidden="true" d="M0,0h51v10.5h-51Z" pointer-events="none" opacity="1"/><g><g class="mark-symbol role-legend-symbol" pointer-events="none"><path transform="translate(10.5,5.5)" d="M3.162,0A3.162,3.162,0,1,1,-3.162,0A3.162,3.162,0,1,1,3.162,0" fill="black" fill-opacity="0.75" stroke="#333" stroke-width="1.5" opacity="0.75"/></g><g class="mark-text role-legend-label" pointer-events="none"><text text-anchor="start" transform="translate(25,8.5)" font-family="Arial, Helvetica, sans-serif" font-size="11px" fill="#000" opacity="1">60</text></g></g><path class="foreground" aria-hidden="true" d="" pointer-events="none" display="none"/></g><g transform="translate(0,14)"><path class="background" aria-hidden="true" d="M0,0h51v12.634553180524705h-51Z" pointer-events="none" opacity="1"/><g><g class="mark-symbol role-legend-symbol" pointer-events="none"><path transform="translate(10.5,6)" d="M5.135,0A5.135,5.135,0,1,1,-5.135,0A5.135,5.135,0,1,1,5.135,0" fill="black" fill-opacity="0.75" stroke="#333" stroke-width="1.5" opacity="0.75"/></g><g class="mark-text role-legend-label" pointer-events="none"><text text-anchor="start" transform="translate(25,9)" font-family="Arial, Helvetica, sans-serif" font-size="11px" fill="#000" opacity="1">70</text></g></g><path class="foreground" aria-hidden="true" d="" pointer-events="none" display="none"/></g><g transform="translate(0,30)"><path class="background" aria-hidden="true" d="M0,0h51v15.536610186271837h-51Z" pointer-events="none" opacity="1"/><g><g class="mark-symbol role-legend-symbol" pointer-events="none"><path transform="translate(10.5,7.5)" d="M6.537,0A6.537,6.537,0,1,1,-6.537,0A6.537,6.537,0,1,1,6.537,0" fill="black" fill-opacity="0.75" stroke="#333" stroke-width="1.5" opacity="0.75"/></g><g class="mark-text role-legend-label" pointer-events="none"><text text-anchor="start" transform="translate(25,10.5)" font-family="Arial, Helvetica, sans-serif" font-size="11px" fill="#000" opacity="1">80</text></g></g><path class="foreground" aria-hidden="true" d="" pointer-events="none" display="none"/></g><g transform="translate(0,49)"><path class="background" aria-hidden="true" d="M0,0h51v17.687061147858074h-51Z" pointer-events="none" opacity="1"/><g><g class="mark-symbol role-legend-symbol" pointer-events="none"><path transform="translate(10.5,8.5)" d="M7.687,0A7.687,7.687,0,1,1,-7.687,0A7.687,7.687,0,1,1,7.687,0" fill="black" fill-opacity="0.75" stroke="#333" stroke-width="1.5" opacity="0.75"/></g><g class="mark-text role-legend-label" pointer-events="none"><text text-anchor="start" transform="translate(25,11.5)" font-family="Arial, Helvetica, sans-serif" font-size="11px" fill="#000" opacity="1">90</text></g></g><path class="foreground" aria-hidden="true" d="" pointer-events="none" display="none"/></g><g transform="translate(0,70)"><path class="background" aria-hidden="true" d="M0,0h51v19.686457589520913h-51Z" pointer-events="none" opacity="1"/><g><g class="mark-symbol role-legend-symbol" pointer-events="none"><path transform="translate(10.5,9.5)" d="M8.686,0A8.686,8.686,0,1,1,-8.686,0A8.686,8.686,0,1,1,8.686,0" fill="black" fill-opacity="0.75" stroke="#333" stroke-width="1.5" opacity="0.75"/></g><g class="mark-text role-legend-label" pointer-events="none"><text text-anchor="start" transform="translate(25,12.5)" font-family="Arial, Helvetica, sans-serif" font-size="11px" fill="#000" opacity="1">100</text></g></g><path class="foreground" aria-hidden="true" d="" pointer-events="none" display="none"/></g><g transform="translate(0,93)"><path class="background" aria-hidden="true" d="M0,0h51v21.58218043131008h-51Z" pointer-events="none" opacity="1"/><g><g class="mark-symbol role-legend-symbol" pointer-events="none"><path transform="translate(10.5,10.5)" d="M9.582,0A9.582,9.582,0,1,1,-9.582,0A9.582,9.582,0,1,1,9.582,0" fill="black" fill-opacity="0.75" stroke="#333" stroke-width="1.5" opacity="0.75"/></g><g class="mark-text role-legend-label" pointer-events="none"><text text-anchor="start" transform="translate(25,13.5)" font-family="Arial, Helvetica, sans-serif" font-size="11px" fill="#000" opacity="1">110</text></g></g><path class="foreground" aria-hidden="true" d="" pointer-events="none" display="none"/></g></g></g><path class="foreground" aria-hidden="true" d="" pointer-events="none" display="none"/></g></g><g class="mark-text role-legend-title" pointer-events="none"><text text-anchor="start" transform="translate(0,9)" font-family="Arial, Helvetica, sans-serif" font-size="12px" font-weight="bold" fill="#000" opacity="1">Exit Velo</text></g></g><path class="foreground" aria-hidden="true" d="" pointer-events="none" display="none"/></g></g><g class="mark-group role-title"><g transform="translate(0,-20)"><path class="background" aria-hidden="true" d="M0,0h0v0h0Z" pointer-events="none"/><g><g class="mark-text role-title-text" role="graphics-symbol" aria-roledescription="title" aria-label="Title text 'Demo Hitter — Spray Chart (Fixture)'" pointer-events="none"><text text-anchor="start" transform="translate(0,13)" font-family="Arial, Helvetica, sans-serif" font-size="16px" font-weight="bold" fill="#000" opacity="1">Demo Hitter — Spray Chart (Fixture)</text></g></g><path class="foreground" aria-hidden="true" d="" pointer-events="none" display="none"/></g></g></g><path class="foreground" aria-hidden="true" d="" display="none"/></g></g></g></svg>