<svg xmlns="http://www.w3.org/2000/svg" xmlns:xlink="http://www.w3.org/1999/xlink" version="1.1" class="marks" width="838" height="565" viewBox="0 0 838 565"><rect width="838" height="565" fill="white"/><g fill="none" stroke-miterlimit="10" transform="translate(64,38)"><g class="mark-group role-frame root" role="graphics-object" aria-roledescription="group mark container"><g transform="translate(0,0)"><path class="background" aria-hidden="true" d="M0.5,0.5h640v480h-640Z"/><g><g class="mark-group role-axis" aria-hidden="true"><g transform="translate(0.5,480.5)"><path class="background" aria-hidden="true" d="M0,0h0v0h0Z" pointer-events="none"/><g><g class="mark-rule role-axis-grid" pointer-events="none"><line transform="translate(320,-480)" x2="0" y2="480" stroke="#ddd" stroke-width="1" opacity="1"/></g></g><path class="foreground" aria-hidden="true" d="" pointer-events="none" display="none"/></g></g><g class="mark-group role-axis" aria-hidden="true"><g transform="translate(0.5,0.5)"><path class="background" aria-hidden="true" d="M0,0h0v0h0Z" pointer-events="none"/><g><g class="mark-rule role-axis-grid" pointer-events="none"><line transform="translate(0,480)" x2="640" y2="0" stroke="#ddd" stroke-width="1" opacity="1"/><line transform="translate(0,432)" x2="640" y2="0" stroke="#ddd" stroke-width="1" opacity="1"/><line transform="translate(0,384)" x2="640" y2="0" stroke="#ddd" stroke-width="1" opacity="1"/><line transform="translate(0,336)" x2="640" y2="0" stroke="#ddd" stroke-width="1" opacity="1"/><line transform="translate(0,288)" x2="640" y2="0" stroke="#ddd" stroke-width="1" opacity="1"/><line transform="translate(0,240)" x2="640" y2="0" stroke="#ddd" stroke-width="1" opacity="1"/><line transform="translate(0,192)" x2="640" y2="0" stroke="#ddd" stroke-width="1" opacity="1"/><line transform="translate(0,144)" x2="640" y2="0" stroke="#ddd" stroke-width="1" opacity="1"/><line transform="translate(0,96)" x2="640" y2="0" stroke="#ddd" stroke-width="1" opacity="1"/><line transform="translate(0,48)" x2="640" y2="0" stroke="#ddd" stroke-width="1" opacity="1"/><line transform="translate(0,0)" x2="640" y2="0" stroke="#ddd" stroke-width="1" opacity="1"/></g></g><path class="foreground" aria-hidden="true" d="" pointer-events="none" display="none"/></g></g><g class="mark-group role-axis" role="graphics-symbol" aria-roledescription="axis" aria-label="X-axis titled 'Window End' for a time scale with values from June 09 to June 09"><g transform="translate(0.5,480.5)"><path class="background" aria-hidden="true" d="M0,0h0v0h0Z" pointer-events="none"/><g><g class="mark-rule role-axis-tick" pointer-events="none"><line transform="translate(320,0)" x2="0" y2="5" stroke="#888" stroke-width="1" opacity="1"/></g><g class="mark-text role-axis-label" pointer-events="none"><text text-anchor="middle" transform="translate(320,16)" font-family="Arial, Helvetica, sans-serif" font-size="12px" fill="#000" opacity="1">Jun 09</text></g><g class="mark-rule role-axis-domain" pointer-events="none"><line transform="translate(0,0)" x2="640" y2="0" stroke="#888" stroke-width="1" opacity="1"/></g><g class="mark-text role-axis-title" pointer-events="none"><text text-anchor="middle" transform="translate(320,32)" font-family="Arial, Helvetica, sans-serif" font-size="13px" font-weight="bold" fill="#000" opacity="1">Window End</text></g></g><path class="foreground" aria-hidden="true" d="" pointer-events="none" display="none"/></g></g><g class="mark-group role-axis" role="graphics-symbol" aria-roledescription="axis" aria-label="Y-axis titled 'Value' for a linear scale with values from 0 to 100"><g transform="translate(0.5,0.5)"><path class="background" aria-hidden="true" d="M0,0h0v0h0Z" pointer-events="none"/><g><g class="mark-rule role-axis-tick" pointer-events="none"><line transform="translate(0,480)" x2="-5" y2="0" stroke="#888" stroke-width="1" opacity="1"/><line transform="translate(0,432)" x2="-5" y2="0" stroke="#888" stroke-width="1" opacity="1"/><line transform="translate(0,384)" x2="-5" y2="0" stroke="#888" stroke-width="1" opacity="1"/><line transform="translate(0,336)" x2="-5" y2="0" stroke="#888" stroke-width="1" opacity="1"/><line transform="translate(0,288)" x2="-5" y2="0" stroke="#888" stroke-width="1" opacity="1"/><line transform="translate(0,240)" x2="-5" y2="0" stroke="#888" stroke-width="1" opacity="1"/><line transform="translate(0,192)" x2="-5" y2="0" stroke="#888" stroke-width="1" opacity="1"/><line transform="translate(0,144)" x2="-5" y2="0" stroke="#888" stroke-width="1" opacity="1"/><line transform="translate(0,96)" x2="-5" y2="0" stroke="#888" stroke-width="1" opacity="1"/><line transform="translate(0,48)" x2="-5" y2="0" stroke="#888" stroke-width="1" opacity="1"/><line transform="translate(0,0)" x2="-5" y2="0" stroke="#888" stroke-width="1" opacity="1"/></g><g class="mark-text role-axis-label" pointer-events="none"><text text-anchor="end" transform="translate(-7,484)" font-family="Arial, Helvetica, sans-serif" font-size="12px" fill="#000" opacity="1">0</text><text text-anchor="end" transform="translate(-7,436)" font-family="Arial, Helvetica, sans-serif" font-size="12px" fill="#000" opacity="1">10</text><text text-anchor="end" transform="translate(-7,388)" font-family="Arial, Helvetica, sans-serif" font-size="12px" fill="#000" opacity="1">20</text><text text-anchor="end" transform="translate(-7,340)" font-family="Arial, Helvetica, sans-serif" font-size="12px" fill="#000" opacity="1">30</text><text text-anchor="end" transform="translate(-7,292)" font-family="Arial, Helvetica, sans-serif" font-size="12px" fill="#000" opacity="1">40</text><text text-anchor="end" transform="translate(-7,244)" font-family="Arial, Helvetica, sans-serif" font-size="12px" fill="#000" opacity="1">50</text><text text-anchor="end" transform="translate(-7,196)" font-family="Arial, Helvetica, sans-serif" font-size="12px" fill="#000" opacity="1">60</text><text text-anchor="end" transform="translate(-7,148.00000000000003)" font-family="Arial, Helvetica, sans-serif" font-size="12px" fill="#000" opacity="1">70</text><text text-anchor="end" transform="translate(-7,99.99999999999997)" font-family="Arial, Helvetica, sans-serif" font-size="12px" fill="#000" opacity="1">80</text><text text-anchor="end" transform="translate(-7,51.999999999999986)" font-family="Arial, Helvetica, sans-serif" font-size="12px" fill="#000" opacity="1">90</text><text text-anchor="end" transform="translate(-7,4)" font-family="Arial, Helvetica, sans-serif" font-size="12px" fill="#000" opacity="1">100</text></g><g class="mark-rule role-axis-domain" pointer-events="none"><line transform="translate(0,480)" x2="0" y2="-480" stroke="#888" stroke-width="1" opacity="1"/></g><g class="mark-text role-axis-title" pointer-events="none"><text text-anchor="middle" transform="translate(-39,240) rotate(-90) translate(0,-3)" font-family="Arial, Helvetica, sans-serif" font-size="13px" font-weight="bold" fill="#000" opacity="1">Value</text></g></g><path class="foreground" aria-hidden="true" d="" pointer-events="none" display="none"/></g></g><g class="mark-group role-scope layer_0_layer_0_pathgroup" role="graphics-object" aria-roledescription="group mark container"><g transform="translate(0,0)"><path class="background" aria-hidden="true" d="M0,0h640v480h-640Z"/><g><g class="mark-line role-mark layer_0_layer_0_marks" role="graphics-object" aria-roledescription="line mark container"><path aria-label="window_end: Jun 09; value: 0.417; metric: AVG; Metric: AVG; Value: 0.417" role="graphics-symbol" aria-roledescription="line mark" d="M320,477.998Z" stroke="#4c78a8" stroke-width="2"/></g></g><path class="foreground" aria-hidden="true" d="" display="none"/></g><g transform="translate(0,0)"><path class="background" aria-hidden="true" d="M0,0h640v480h-640Z"/><g><g class="mark-line role-mark layer_0_layer_0_marks" role="graphics-object" aria-roledescription="line mark container"><path aria-label="window_end: Jun 09; value: 1.354; metric: SLG; Metric: SLG; Value: 1.354" role="graphics-symbol" aria-roledescription="line mark" d="M320,473.501Z" stroke="#54a24b" stroke-width="2"/></g></g><path class="foreground" aria-hidden="true" d="" display="none"/></g><g transform="translate(0,0)"><path class="background" aria-hidden="true" d="M0,0h640v480h-640Z"/><g><g class="mark-line role-mark layer_0_layer_0_marks" role="graphics-object" aria-roledescription="line mark container"><path aria-label="window_end: Jun 09; value: 0; metric: K %; Metric: K %; Value: 0.000" role="graphics-symbol" aria-roledescription="line mark" d="M320,480Z" stroke="#72b7b2" stroke-width="2"/></g></g><path class="foreground" aria-hidden="true" d="" display="none"/></g><g transform="translate(0,0)"><path class="background" aria-hidden="true" d="M0,0h640v480h-640Z"/><g><g class="mark-line role-mark layer_0_layer_0_marks" role="graphics-object" aria-roledescription="line mark container"><path aria-label="window_end: Jun 09; value: 91.1; metric: Avg EV; Metric: Avg EV; Value: 91.100" role="graphics-symbol" aria-roledescription="line mark" d="M320,42.72Z" stroke="#f58518" stroke-width="2"/></g></g><path class="foreground" aria-hidden="true" d="" display="none"/></g><g transform="translate(0,0)"><path class="background" aria-hidden="true" d="M0,0h640v480h-640Z"/><g><g class="mark-line role-mark layer_0_layer_0_marks" role="graphics-object" aria-roledescription="line mark container"><path aria-label="window_end: Jun 09; value: 12.5; metric: Hard Hit %; Metric: Hard Hit %; Value: 12.500" role="graphics-symbol" aria-roledescription="line mark" d="M320,420Z" stroke="#e45756" stroke-width="2"/></g></g><path class="foreground" aria-hidden="true" d="" display="none"/></g></g><g class="mark-symbol role-mark layer_0_layer_1_marks" role="graphics-object" aria-roledescription="symbol mark container"><path aria-label="window_end: Jun 09; value: 0.417; metric: AVG; Metric: AVG; Value: 0.417" role="graphics-symbol" aria-roledescription="point" transform="translate(320,477.9984)" d="M2.739,0A2.739,2.739,0,1,1,-2.739,0A2.739,2.739,0,1,1,2.739,0" fill="#4c78a8" stroke-width="2" opacity="1"/><path aria-label="window_end: Jun 09; value: 1.354; metric: SLG; Metric: SLG; Value: 1.354" role="graphics-symbol" aria-roledescription="point" transform="translate(320,473.5008)" d="M2.739,0A2.739,2.739,0,1,1,-2.739,0A2.739,2.739,0,1,1,2.739,0" fill="#54a24b" stroke-width="2" opacity="1"/><path aria-label="window_end: Jun 09; value: 0; metric: K %; Metric: K %; Value: 0.000" role="graphics-symbol" aria-roledescription="point" transform="translate(320,480)" d="M2.739,0A2.739,2.739,0,1,1,-2.739,0A2.739,2.739,0,1,1,2.739,0" fill="#72b7b2" stroke-width="2" opacity="1"/><path aria-label="window_end: Jun 09; value: 91.1; metric: Avg EV; Metric: Avg EV; Value: 91.100" role="graphics-symbol" aria-roledescription="point" transform="translate(320,42.72000000000004)" d="M2.739,0A2.739,2.739,0,1,1,-2.739,0A2.739,2.739,0,1,1,2.739,0" fill="#f58518" stroke-width="2" opacity="1"/><path aria-label="window_end: Jun 09; value: 12.5; metric: Hard Hit %; Metric: Hard Hit %; Value: 12.500" role="graphics-symbol" aria-roledescription="point" transform="translate(320,420)" d="M2.739,0A2.739,2.739,0,1,1,-2.739,0A2.739,2.739,0,1,1,2.739,0" fill="#e45756" stroke-width="2" opacity="1"/></g><g class="mark-rule role-mark layer_1_marks" role="graphics-object" aria-roledescription="rule mark container"><line aria-label="Mean of value: 0.417; metric: AVG" role="graphics-symbol" aria-roledescription="rule mark" transform="translate(640,477.9984)" x2="-640" y2="0" stroke="#4c78a8" stroke-dasharray="4,4" opacity="0.5"/><line aria-label="Mean of value: 1.354; metric: SLG" role="graphics-symbol" aria-roledescription="rule mark" transform="translate(640,473.5008)" x2="-640" y2="0" stroke="#54a24b" stroke-dasharray="4,4" opacity="0.5"/><line aria-label="Mean of value: 0; metric: K %" role="graphics-symbol" aria-roledescription="rule mark" transform="translate(640,480)" x2="-640" y2="0" stroke="#72b7b2" stroke-dasharray="4,4" opacity="0.5"/><line aria-label="Mean of value: 91.1; metric: Avg EV" role="graphics-symbol" aria-roledescription="rule mark" transform="translate(640,42.72000000000004)" x2="-640" y2="0" stroke="#f58518" stroke-dasharray="4,4" opacity="0.5"/><line aria-label="Mean of value: 12.5; metric: Hard Hit %" role="graphics-symbol" aria-roledescription="rule mark" transform="translate(640,420)" x2="-640" y2="0" stroke="#e45756" stroke-dasharray="4,4" opacity="0.5"/></g><g class="mark-group role-legend" role="graphics-symbol" aria-roledescription="legend" aria-label="Symbol legend titled 'Metric' for fill color and stroke color with 5 values: AVG, Avg EV, Hard Hit %, K %, SLG"><g transform="translate(658,0)"><path class="background" aria-hidden="true" d="M0,0h104v94h-104Z" pointer-events="none"/><g><g class="mark-group role-legend-entry"><g transform="translate(0,17)"><path class="background" aria-hidden="true" d="M0,0h0v0h0Z" pointer-events="none"/><g><g class="mark-group role-scope" role="graphics-object" aria-roledescription="group mark container"><g transform="translate(0,0)"><path class="background" aria-hidden="true" d="M0,0h104v12.5h-104Z" pointer-events="none" opacity="1"/><g><g class="mark-symbol role-legend-symbol" pointer-events="none"><path transform="translate(6,6)" d="M5,0A5,5,0,1,1,-5,0A5,5,0,1,1,5,0" fill="#4c78a8" stroke="#4c78a8" stroke-width="1.5" opacity="1"/></g><g class="mark-text role-legend-label" pointer-events="none"><text text-anchor="start" transform="translate(16,9)" font-family="Arial, Helvetica, sans-serif" font-size="11px" fill="#000" opacity="1">AVG</text></g></g><path class="foreground" aria-hidden="true" d="" pointer-events="none" display="none"/></g><g transform="translate(0,16)"><path class="background" aria-hidden="true" d="M0,0h104v12.5h-104Z" pointer-events="none" opacity="1"/><g><g class="mark-symbol role-legend-symbol" pointer-events="none"><path transform="translate(6,6)" d="M5,0A5,5,0,1,1,-5,0A5,5,0,1,1,5,0" fill="#f58518" stroke="#f58518" stroke-width="1.5" opacity="1"/></g><g class="mark-text role-legend-label" pointer-events="none"><text text-anchor="start" transform="translate(16,9)" font-family="Arial, Helvetica, sans-serif" font-size="11px" fill="#000" opacity="1">Avg EV</text></g></g><path class="foreground" aria-hidden="true" d="" pointer-events="none" display="none"/></g><g transform="translate(0,32)"><path class="background" aria-hidden="true" d="M0,0h104v12.5h-104Z" pointer-events="none" opacity="1"/><g><g class="mark-symbol role-legend-symbol" pointer-events="none"><path transform="translate(6,6)" d="M5,0A5,5,0,1,1,-5,0A5,5,0,1,1,5,0" fill="#e45756" stroke="#e45756" stroke-width="1.5" opacity="1"/></g><g class="mark-text role-legend-label" pointer-events="none"><text text-anchor="start" transform="translate(16,9)" font-family="Arial, Helvetica, sans-serif" font-size="11px" fill="#000" opacity="1">Hard Hit %</text></g></g><path class="foreground" aria-hidden="true" d="" pointer-events="none" display="none"/></g><g transform="translate(0,48)"><path class="background" aria-hidden="true" d="M0,0h104v12.5h-104Z" pointer-events="none" opacity="1"/><g><g class="mark-symbol role-legend-symbol" pointer-events="none"><path transform="translate(6,6)" d="M5,0A5,5,0,1,1,-5,0A5,5,0,1,1,5,0" fill="#72b7b2" stroke="#72b7b2" stroke-width="1.5" opacity="1"/></g><g class="mark-text role-legend-label" pointer-events="none"><text text-anchor="start" transform="translate(16,9)" font-family="Arial, Helvetica, sans-serif" font-size="11px" fill="#000" opacity="1">K %</text></g></g><path class="foreground" aria-hidden="true" d="" pointer-events="none" display="none"/></g><g transform="translate(0,64)"><path class="background" aria-hidden="true" d="M0,0h104v12.5h-104Z" pointer-events="none" opacity="1"/><g><g class="mark-symbol role-legend-symbol" pointer-events="none"><path transform="translate(6,6)" d="M5,0A5,5,0,1,1,-5,0A5,5,0,1,1,5,0" fill="#54a24b" stroke="#54a24b" stroke-width="1.5" opacity="1"/></g><g class="mark-text role-legend-label" pointer-events="none"><text text-anchor="start" transform="translate(16,9)" font-family="Arial, Helvetica, sans-serif" font-size="11px" fill="#000" opacity="1">SLG</text></g></g><path class="foreground" aria-hidden="true" d="" pointer-events="none" display="none"/></g></g></g><path class="foreground" aria-hidden="true" d="" pointer-events="none" display="none"/></g></g><g class="mark-text role-legend-title" pointer-events="none"><text text-anchor="start" transform="translate(0,9)" font-family="Arial, Helvetica, sans-serif" font-size="12px" font-weight="bold" fill="#000" opacity="1">Metric</text></g></g><path class="foreground" aria-hidden="true" d="" pointer-events="none" display="none"/></g></g><g class="mark-group role-title"><g transform="translate(-52,-26)"><path class="background" aria-hidden="true" d="M0,0h0v0h0Z" pointer-events="none"/><g><g class="mark-text role-title-text" role="graphics-symbol" aria-roledescription="title" aria-label="Title text 'Test Hitter — Rolling Performance (2026)'" pointer-events="none"><text text-anchor="start" transform="translate(0,13)" font-family="Arial, Helvetica, sans-serif" font-size="16px" font-weight="bold" fill="#000" opacity="1">Test Hitter — Rolling Performance (2026)</text></g></g><path class="foreground" aria-hidden="true" d="" pointer-events="none" display="none"/></g></g></g><path class="foreground" aria-hidden="true" d="" display="none"/></g></g></g></svg>