<svg xmlns="http://www.w3.org/2000/svg" xmlns:xlink="http://www.w3.org/1999/xlink" version="1.1" class="marks" width="782" height="565" viewBox="0 0 782 565"><rect width="782" height="565" fill="white"/><g fill="none" stroke-miterlimit="10" transform="translate(64,38)"><g class="mark-group role-frame root" role="graphics-object" aria-roledescription="group mark container"><g transform="translate(0,0)"><path class="background" aria-hidden="true" d="M0.5,0.5h640v480h-640Z"/><g><g class="mark-group role-axis" aria-hidden="true"><g transform="translate(0.5,480.5)"><path class="background" aria-hidden="true" d="M0,0h0v0h0Z" pointer-events="none"/><g><g class="mark-rule role-axis-grid" pointer-events="none"><line transform="translate(13,-480)" x2="0" y2="480" stroke="#ddd" stroke-width="1" opacity="1"/><line transform="translate(38,-480)" x2="0" y2="480" stroke="#ddd" stroke-width="1" opacity="1"/><line transform="translate(64,-480)" x2="0" y2="480" stroke="#ddd" stroke-width="1" opacity="1"/><line transform="translate(90,-480)" x2="0" y2="480" stroke="#ddd" stroke-width="1" opacity="1"/><line transform="translate(115,-480)" x2="0" y2="480" stroke="#ddd" stroke-width="1" opacity="1"/><line transform="translate(141,-480)" x2="0" y2="480" stroke="#ddd" stroke-width="1" opacity="1"/><line transform="translate(166,-480)" x2="0" y2="480" stroke="#ddd" stroke-width="1" opacity="1"/><line transform="translate(192,-480)" x2="0" y2="480" stroke="#ddd" stroke-width="1" opacity="1"/><line transform="translate(218,-480)" x2="0" y2="480" stroke="#ddd" stroke-width="1" opacity="1"/><line transform="translate(243,-480)" x2="0" y2="480" stroke="#ddd" stroke-width="1" opacity="1"/><line transform="translate(269,-480)" x2="0" y2="480" stroke="#ddd" stroke-width="1" opacity="1"/><line transform="translate(294,-480)" x2="0" y2="480" stroke="#ddd" stroke-width="1" opacity="1"/><line transform="translate(320,-480)" x2="0" y2="480" stroke="#ddd" stroke-width="1" opacity="1"/><line transform="translate(346,-480)" x2="0" y2="480" stroke="#ddd" stroke-width="1" opacity="1"/><line transform="translate(371,-480)" x2="0" y2="480" stroke="#ddd" stroke-width="1" opacity="1"/><line transform="translate(397,-480)" x2="0" y2="480" stroke="#ddd" stroke-width="1" opacity="1"/><line transform="translate(422,-480)" x2="0" y2="480" stroke="#ddd" stroke-width="1" opacity="1"/><line transform="translate(448,-480)" x2="0" y2="480" stroke="#ddd" stroke-width="1" opacity="1"/><line transform="translate(474,-480)" x2="0" y2="480" stroke="#ddd" stroke-width="1" opacity="1"/><line transform="translate(499,-480)" x2="0" y2="480" stroke="#ddd" stroke-width="1" opacity="1"/><line transform="translate(525,-480)" x2="0" y2="480" stroke="#ddd" stroke-width="1" opacity="1"/><line transform="translate(550,-480)" x2="0" y2="480" stroke="#ddd" stroke-width="1" opacity="1"/><line transform="translate(576,-480)" x2="0" y2="480" stroke="#ddd" stroke-width="1" opacity="1"/><line transform="translate(602,-480)" x2="0" y2="480" stroke="#ddd" stroke-width="1" opacity="1"/><line transform="translate(627,-480)" x2="0" y2="480" stroke="#ddd" stroke-width="1" opacity="1"/></g></g><path class="foreground" aria-hidden="true" d="" pointer-events="none" display="none"/></g></g><g class="mark-group role-axis" aria-hidden="true"><g transform="translate(0.5,0.5)"><path class="background" aria-hidden="true" d="M0,0h0v0h0Z" pointer-events="none"/><g><g class="mark-rule role-axis-grid" pointer-events="none"><line transform="translate(0,480)" x2="640" y2="0" stroke="#ddd" stroke-width="1" opacity="1"/><line transform="translate(0,432)" x2="640" y2="0" stroke="#ddd" stroke-width="1" opacity="1"/><line transform="translate(0,384)" x2="640" y2="0" stroke="#ddd" stroke-width="1" opacity="1"/><line transform="translate(0,336)" x2="640" y2="0" stroke="#ddd" stroke-width="1" opacity="1"/><line transform="translate(0,288)" x2="640" y2="0" stroke="#ddd" stroke-width="1" opacity="1"/><line transform="translate(0,240)" x2="640" y2="0" stroke="#ddd" stroke-width="1" opacity="1"/><line transform="translate(0,192)" x2="640" y2="0" stroke="#ddd" stroke-width="1" opacity="1"/><line transform="translate(0,144)" x2="640" y2="0" stroke="#ddd" stroke-width="1" opacity="1"/><line transform="translate(0,96)" x2="640" y2="0" stroke="#ddd" stroke-width="1" opacity="1"/><line transform="translate(0,48)" x2="640" y2="0" stroke="#ddd" stroke-width="1" opacity="1"/><line transform="translate(0,0)" x2="640" y2="0" stroke="#ddd" stroke-width="1" opacity="1"/></g></g><path class="foreground" aria-hidden="true" d="" pointer-events="none" display="none"/></g></g><g class="mark-group role-axis" role="graphics-symbol" aria-roledescription="axis" aria-label="X-axis titled 'Horizontal Break (in, catcher POV)' for a linear scale with values from −25 to 25"><g transform="translate(0.5,480.5)"><path class="background" aria-hidden="true" d="M0,0h0v0h0Z" pointer-events="none"/><g><g class="mark-rule role-axis-tick" pointer-events="none"><line transform="translate(13,0)" x2="0" y2="5" stroke="#888" stroke-width="1" opacity="1"/><line transform="translate(38,0)" x2="0" y2="5" stroke="#888" stroke-width="1" opacity="1"/><line transform="translate(64,0)" x2="0" y2="5" stroke="#888" stroke-width="1" opacity="1"/><line transform="translate(90,0)" x2="0" y2="5" stroke="#888" stroke-width="1" opacity="1"/><line transform="translate(115,0)" x2="0" y2="5" stroke="#888" stroke-width="1" opacity="1"/><line transform="translate(141,0)" x2="0" y2="5" stroke="#888" stroke-width="1" opacity="1"/><line transform="translate(166,0)" x2="0" y2="5" stroke="#888" stroke-width="1" opacity="1"/><line transform="translate(192,0)" x2="0" y2="5" stroke="#888" stroke-width="1" opacity="1"/><line transform="translate(218,0)" x2="0" y2="5" stroke="#888" stroke-width="1" opacity="1"/><line transform="translate(243,0)" x2="0" y2="5" stroke="#888" stroke-width="1" opacity="1"/><line transform="translate(269,0)" x2="0" y2="5" stroke="#888" stroke-width="1" opacity="1"/><line transform="translate(294,0)" x2="0" y2="5" stroke="#888" stroke-width="1" opacity="1"/><line transform="translate(320,0)" x2="0" y2="5" stroke="#888" stroke-width="1" opacity="1"/><line transform="translate(346,0)" x2="0" y2="5" stroke="#888" stroke-width="1" opacity="1"/><line transform="translate(371,0)" x2="0" y2="5" stroke="#888" stroke-width="1" opacity="1"/><line transform="translate(397,0)" x2="0" y2="5" stroke="#888" stroke-width="1" opacity="1"/><line transform="translate(422,0)" x2="0" y2="5" stroke="#888" stroke-width="1" opacity="1"/><line transform="translate(448,0)" x2="0" y2="5" stroke="#888" stroke-width="1" opacity="1"/><line transform="translate(474,0)" x2="0" y2="5" stroke="#888" stroke-width="1" opacity="1"/><line transform="translate(499,0)" x2="0" y2="5" stroke="#888" stroke-width="1" opacity="1"/><line transform="translate(525,0)" x2="0" y2="5" stroke="#888" stroke-width="1" opacity="1"/><line transform="translate(550,0)" x2="0" y2="5" stroke="#888" stroke-width="1" opacity="1"/><line transform="translate(576,0)" x2="0" y2="5" stroke="#888" stroke-width="1" opacity="1"/><line transform="translate(602,0)" x2="0" y2="5" stroke="#888" stroke-width="1" opacity="1"/><line transform="translate(627,0)" x2="0" y2="5" stroke="#888" stroke-width="1" opacity="1"/></g><g class="mark-text role-axis-label" pointer-events="none"><text text-anchor="middle" transform="translate(12.8,16)" font-family="Arial, Helvetica, sans-serif" font-size="12px" fill="#000" opacity="1">−24</text><text text-anchor="middle" transform="translate(38.4,16)" font-family="Arial, Helvetica, sans-serif" font-size="12px" fill="#000" opacity="0">−22</text><text text-anchor="middle" transform="translate(64,16)" font-family="Arial, Helvetica, sans-serif" font-size="12px" fill="#000" opacity="1">−20</text><text text-anchor="middle" transform="translate(89.60000000000001,16)" font-family="Arial, Helvetica, sans-serif" font-size="12px" fill="#000" opacity="0">−18</text><text text-anchor="middle" transform="translate(115.19999999999999,16)" font-family="Arial, Helvetica, sans-serif" font-size="12px" fill="#000" opacity="1">−16</text><text text-anchor="middle" transform="translate(140.8,16)" font-family="Arial, Helvetica, sans-serif" font-size="12px" fill="#000" opacity="0">−14</text><text text-anchor="middle" transform="translate(166.4,16)" font-family="Arial, Helvetica, sans-serif" font-size="12px" fill="#000" opacity="1">−12</text><text text-anchor="middle" transform="translate(192,16)" font-family="Arial, Helvetica, sans-serif" font-size="12px" fill="#000" opacity="0">−10</text><text text-anchor="middle" transform="translate(217.60000000000002,16)" font-family="Arial, Helvetica, sans-serif" font-size="12px" fill="#000" opacity="1">−8</text><text text-anchor="middle" transform="translate(243.2,16)" font-family="Arial, Helvetica, sans-serif" font-size="12px" fill="#000" opacity="0">−6</text><text text-anchor="middle" transform="translate(268.8,16)" font-family="Arial, Helvetica, sans-serif" font-size="12px" fill="#000" opacity="1">−4</text><text text-anchor="middle" transform="translate(294.40000000000003,16)" font-family="Arial, Helvetica, sans-serif" font-size="12px" fill="#000" opacity="0">−2</text><text text-anchor="middle" transform="translate(320,16)" font-family="Arial, Helvetica, sans-serif" font-size="12px" fill="#000" opacity="1">0</text><text text-anchor="middle" transform="translate(345.6,16)" font-family="Arial, Helvetica, sans-serif" font-size="12px" fill="#000" opacity="0">2</text><text text-anchor="middle" transform="translate(371.2,16)" font-family="Arial, Helvetica, sans-serif" font-size="12px" fill="#000" opacity="1">4</text><text text-anchor="middle" transform="translate(396.8,16)" font-family="Arial, Helvetica, sans-serif" font-size="12px" fill="#000" opacity="0">6</text><text text-anchor="middle" transform="translate(422.40000000000003,16)" font-family="Arial, Helvetica, sans-serif" font-size="12px" fill="#000" opacity="1">8</text><text text-anchor="middle" transform="translate(448,16)" font-family="Arial, Helvetica, sans-serif" font-size="12px" fill="#000" opacity="0">10</text><text text-anchor="middle" transform="translate(473.6,16)" font-family="Arial, Helvetica, sans-serif" font-size="12px" fill="#000" opacity="1">12</text><text text-anchor="middle" transform="translate(499.20000000000005,16)" font-family="Arial, Helvetica, sans-serif" font-size="12px" fill="#000" opacity="0">14</text><text text-anchor="middle" transform="translate(524.8,16)" font-family="Arial, Helvetica, sans-serif" font-size="12px" fill="#000" opacity="1">16</text><text text-anchor="middle" transform="translate(550.4,16)" font-family="Arial, Helvetica, sans-serif" font-size="12px" fill="#000" opacity="0">18</text><text text-anchor="middle" transform="translate(576,16)" font-family="Arial, Helvetica, sans-serif" font-size="12px" fill="#000" opacity="1">20</text><text text-anchor="middle" transform="translate(601.5999999999999,16)" font-family="Arial, Helvetica, sans-serif" font-size="12px" fill="#000" opacity="0">22</text><text text-anchor="middle" transform="translate(627.2,16)" font-family="Arial, Helvetica, sans-serif" font-size="12px" fill="#000" opacity="1">24</text></g><g class="mark-rule role-axis-domain" pointer-events="none"><line transform="translate(0,0)" x2="640" y2="0" stroke="#888" stroke-width="1" opacity="1"/></g><g class="mark-text role-axis-title" pointer-events="none"><text text-anchor="middle" transform="translate(320,32)" font-family="Arial, Helvetica, sans-serif" font-size="13px" font-weight="bold" fill="#000" opacity="1">Horizontal Break (in, catcher POV)</text></g></g><path class="foreground" aria-hidden="true" d="" pointer-events="none" display="none"/></g></g><g class="mark-group role-axis" role="graphics-symbol" aria-roledescription="axis" aria-label="Y-axis titled 'Induced Vertical Break (in)' for a linear scale with values from −25 to 25"><g transform="translate(0.5,0.5)"><path class="background" aria-hidden="true" d="M0,0h0v0h0Z" pointer-events="none"/><g><g class="mark-rule role-axis-tick" pointer-events="none"><line transform="translate(0,480)" x2="-5" y2="0" stroke="#888" stroke-width="1" opacity="1"/><line transform="translate(0,432)" x2="-5" y2="0" stroke="#888" stroke-width="1" opacity="1"/><line transform="translate(0,384)" x2="-5" y2="0" stroke="#888" stroke-width="1" opacity="1"/><line transform="translate(0,336)" x2="-5" y2="0" stroke="#888" stroke-width="1" opacity="1"/><line transform="translate(0,288)" x2="-5" y2="0" stroke="#888" stroke-width="1" opacity="1"/><line transform="translate(0,240)" x2="-5" y2="0" stroke="#888" stroke-width="1" opacity="1"/><line transform="translate(0,192)" x2="-5" y2="0" stroke="#888" stroke-width="1" opacity="1"/><line transform="translate(0,144)" x2="-5" y2="0" stroke="#888" stroke-width="1" opacity="1"/><line transform="translate(0,96)" x2="-5" y2="0" stroke="#888" stroke-width="1" opacity="1"/><line transform="translate(0,48)" x2="-5" y2="0" stroke="#888" stroke-width="1" opacity="1"/><line transform="translate(0,0)" x2="-5" y2="0" stroke="#888" stroke-width="1" opacity="1"/></g><g class="mark-text role-axis-label" pointer-events="none"><text text-anchor="end" transform="translate(-7,484)" font-family="Arial, Helvetica, sans-serif" font-size="12px" fill="#000" opacity="1">−25</text><text text-anchor="end" transform="translate(-7,436)" font-family="Arial, Helvetica, sans-serif" font-size="12px" fill="#000" opacity="1">−20</text><text text-anchor="end" transform="translate(-7,388)" font-family="Arial, Helvetica, sans-serif" font-size="12px" fill="#000" opacity="1">−15</text><text text-anchor="end" transform="translate(-7,340)" font-family="Arial, Helvetica, sans-serif" font-size="12px" fill="#000" opacity="1">−10</text><text text-anchor="end" transform="translate(-7,292)" font-family="Arial, Helvetica, sans-serif" font-size="12px" fill="#000" opacity="1">−5</text><text text-anchor="end" transform="translate(-7,244)" font-family="Arial, Helvetica, sans-serif" font-size="12px" fill="#000" opacity="1">0</text><text text-anchor="end" transform="translate(-7,196)" font-family="Arial, Helvetica, sans-serif" font-size="12px" fill="#000" opacity="1">5</text><text text-anchor="end" transform="translate(-7,148.00000000000003)" font-family="Arial, Helvetica, sans-serif" font-size="12px" fill="#000" opacity="1">10</text><text text-anchor="end" transform="translate(-7,99.99999999999997)" font-family="Arial, Helvetica, sans-serif" font-size="12px" fill="#000" opacity="1">15</text><text text-anchor="end" transform="translate(-7,51.999999999999986)" font-family="Arial, Helvetica, sans-serif" font-size="12px" fill="#000" opacity="1">20</text><text text-anchor="end" transform="translate(-7,4)" font-family="Arial, Helvetica, sans-serif" font-size="12px" fill="#000" opacity="1">25</text></g><g class="mark-rule role-axis-domain" pointer-events="none"><line transform="translate(0,480)" x2="0" y2="-480" stroke="#888" stroke-width="1" opacity="1"/></g><g class="mark-text role-axis-title" pointer-events="none"><text text-anchor="middle" transform="translate(-39,240) rotate(-90) translate(0,-3)" font-family="Arial, Helvetica, sans-serif" font-size="13px" font-weight="bold" fill="#000" opacity="1">Induced Vertical Break (in)</text></g></g><path class="foreground" aria-hidden="true" d="" pointer-events="none" display="none"/></g></g><g class="mark-rule role-mark layer_0_marks" role="graphics-symbol" aria-roledescription="rule mark container"><line transform="translate(320,0)" x2="0" y2="480" stroke="#888" stroke-dasharray="4,4"/><line transform="translate(320,0)" x2="0" y2="480" stroke="#888" stroke-dasharray="4,4"/><line transform="translate(320,0)" x2="0" y2="480" stroke="#888" stroke-dasharray="4,4"/><line transform="translate(320,0)" x2="0" y2="480" stroke="#888" stroke-dasharray="4,4"/></g><g class="mark-rule role-mark layer_1_marks" role="graphics-symbol" aria-roledescription="rule mark container"><line transform="translate(640,240)" x2="-640" y2="0" stroke="#888" stroke-dasharray="4,4"/><line transform="translate(640,240)" x2="-640" y2="0" stroke="#888" stroke-dasharray="4,4"/><line transform="translate(640,240)" x2="-640" y2="0" stroke="#888" stroke-dasharray="4,4"/><line transform="translate(640,240)" x2="-640" y2="0" stroke="#888" stroke-dasharray="4,4"/></g><g class="mark-symbol role-mark layer_2_marks" role="graphics-object" aria-roledescription="symbol mark container"><path aria-label="hBreak: −9.6; vBreak: 14.4; pitch_type: FF; Type: FF; Velo (mph): 95.2; H Break (in): −9.6; V Break (in): 14.4" role="graphics-symbol" aria-roledescription="point" transform="translate(197.12,101.76000000000003)" d="M3.873,0A3.873,3.873,0,1,1,-3.873,0A3.873,3.873,0,1,1,3.873,0" fill="#f58518" stroke-width="2" opacity="0.65"/><path aria-label="hBreak: 6; vBreak: 4.8; pitch_type: SL; Type: SL; Velo (mph): 87.1; H Break (in): 6.0; V Break (in): 4.8" role="graphics-symbol" aria-roledescription="point" transform="translate(396.8,193.92000000000002)" d="M3.873,0A3.873,3.873,0,1,1,-3.873,0A3.873,3.873,0,1,1,3.873,0" fill="#e45756" stroke-width="2" opacity="0.65"/><path aria-label="hBreak: −14.4; vBreak: 7.2; pitch_type: CH; Type: CH; Velo (mph): 89.3; H Break (in): −14.4; V Break (in): 7.2" role="graphics-symbol" aria-roledescription="point" transform="translate(135.68,170.88)" d="M3.873,0A3.873,3.873,0,1,1,-3.873,0A3.873,3.873,0,1,1,3.873,0" fill="#4c78a8" stroke-width="2" opacity="0.65"/><path aria-label="hBreak: −8.4; vBreak: 13.2; pitch_type: FF; Type: FF; Velo (mph): 96.1; H Break (in): −8.4; V Break (in): 13.2" role="graphics-symbol" aria-roledescription="point" transform="translate(212.48000000000002,113.28)" d="M3.873,0A3.873,3.873,0,1,1,-3.873,0A3.873,3.873,0,1,1,3.873,0" fill="#f58518" stroke-width="2" opacity="0.65"/></g><g class="mark-symbol role-mark layer_3_marks" role="graphics-object" aria-roledescription="symbol mark container"><path aria-label="Mean of hBreak: −9; Mean of vBreak: 13.8; pitch_type: FF" role="graphics-symbol" aria-roledescription="point" transform="translate(204.8,107.52000000000004)" d="M-11.18,-4.472L-11.18,4.472L-4.472,4.472L-4.472,11.18L4.472,11.18L4.472,4.472L11.18,4.472L11.18,-4.472L4.472,-4.472L4.472,-11.18L-4.472,-11.18L-4.472,-4.472Z" stroke="#f58518" stroke-width="3"/><path aria-label="Mean of hBreak: 6; Mean of vBreak: 4.8; pitch_type: SL" role="graphics-symbol" aria-roledescription="point" transform="translate(396.8,193.92000000000002)" d="M-11.18,-4.472L-11.18,4.472L-4.472,4.472L-4.472,11.18L4.472,11.18L4.472,4.472L11.18,4.472L11.18,-4.472L4.472,-4.472L4.472,-11.18L-4.472,-11.18L-4.472,-4.472Z" stroke="#e45756" stroke-width="3"/><path aria-label="Mean of hBreak: −14.4; Mean of vBreak: 7.2; pitch_type: CH" role="graphics-symbol" aria-roledescription="point" transform="translate(135.68,170.88)" d="M-11.18,-4.472L-11.18,4.472L-4.472,4.472L-4.472,11.18L4.472,11.18L4.472,4.472L11.18,4.472L11.18,-4.472L4.472,-4.472L4.472,-11.18L-4.472,-11.18L-4.472,-4.472Z" stroke="#4c78a8" stroke-width="3"/></g><g class="mark-group role-legend" role="graphics-symbol" aria-roledescription="legend" aria-label="Symbol legend titled 'Pitch' for fill color and stroke color with 3 values: CH, FF, SL"><g transform="translate(658,0)"><path class="background" aria-hidden="true" d="M0,0h48v62h-48Z" pointer-events="none"/><g><g class="mark-group role-legend-entry"><g transform="translate(0,17)"><path class="background" aria-hidden="true" d="M0,0h0v0h0Z" pointer-events="none"/><g><g class="mark-group role-scope" role="graphics-object" aria-roledescription="group mark container"><g transform="translate(0,0)"><path class="background" aria-hidden="true" d="M0,0h33v12.5h-33Z" pointer-events="none" opacity="1"/><g><g class="mark-symbol role-legend-symbol" pointer-events="none"><path transform="translate(6,6)" d="M5,0A5,5,0,1,1,-5,0A5,5,0,1,1,5,0" fill="#4c78a8" stroke="#4c78a8" stroke-width="1.5" opacity="0.65"/></g><g class="mark-text role-legend-label" pointer-events="none"><text text-anchor="start" transform="translate(16,9)" font-family="Arial, Helvetica, sans-serif" font-size="11px" fill="#000" opacity="1">CH</text></g></g><path class="foreground" aria-hidden="true" d="" pointer-events="none" display="none"/></g><g transform="translate(0,16)"><path class="background" aria-hidden="true" d="M0,0h33v12.5h-33Z" pointer-events="none" opacity="1"/><g><g class="mark-symbol role-legend-symbol" pointer-events="none"><path transform="translate(6,6)" d="M5,0A5,5,0,1,1,-5,0A5,5,0,1,1,5,0" fill="#f58518" stroke="#f58518" stroke-width="1.5" opacity="0.65"/></g><g class="mark-text role-legend-label" pointer-events="none"><text text-anchor="start" transform="translate(16,9)" font-family="Arial, Helvetica, sans-serif" font-size="11px" fill="#000" opacity="1">FF</text></g></g><path class="foreground" aria-hidden="true" d="" pointer-events="none" display="none"/></g><g transform="translate(0,32)"><path class="background" aria-hidden="true" d="M0,0h33v12.5h-33Z" pointer-events="none" opacity="1"/><g><g class="mark-symbol role-legend-symbol" pointer-events="none"><path transform="translate(6,6)" d="M5,0A5,5,0,1,1,-5,0A5,5,0,1,1,5,0" fill="#e45756" stroke="#e45756" stroke-width="1.5" opacity="0.65"/></g><g class="mark-text role-legend-label" pointer-events="none"><text text-anchor="start" transform="translate(16,9)" font-family="Arial, Helvetica, sans-serif" font-size="11px" fill="#000" opacity="1">SL</text></g></g><path class="foreground" aria-hidden="true" d="" pointer-events="none" display="none"/></g></g></g><path class="foreground" aria-hidden="true" d="" pointer-events="none" display="none"/></g></g><g class="mark-text role-legend-title" pointer-events="none"><text text-anchor="start" transform="translate(0,9)" font-family="Arial, Helvetica, sans-serif" font-size="12px" font-weight="bold" fill="#000" opacity="1">Pitch</text></g></g><path class="foreground" aria-hidden="true" d="" pointer-events="none" display="none"/></g></g><g class="mark-group role-title"><g transform="translate(-52,-26)"><path class="background" aria-hidden="true" d="M0,0h0v0h0Z" pointer-events="none"/><g><g class="mark-text role-title-text" role="graphics-symbol" aria-roledescription="title" aria-label="Title text 'Test Pitcher — Pitch Movement (2026)'" pointer-events="none"><text text-anchor="start" transform="translate(0,13)" font-family="Arial, Helvetica, sans-serif" font-size="16px" font-weight="bold" fill="#000" opacity="1">Test Pitcher — Pitch Movement (2026)</text></g></g><path class="foreground" aria-hidden="true" d="" pointer-events="none" display="none"/></g></g></g><path class="foreground" aria-hidden="true" d="" display="none"/></g></g></g></svg>