<svg xmlns="http://www.w3.org/2000/svg" xmlns:xlink="http://www.w3.org/1999/xlink" version="1.1" class="marks" width="856" height="524" viewBox="0 0 856 524"><rect width="856" height="524" fill="white"/><g fill="none" stroke-miterlimit="10" transform="translate(12,32)"><g class="mark-group role-frame root" role="graphics-object" aria-roledescription="group mark container"><g transform="translate(0,0)"><path class="background" aria-hidden="true" d="M0.5,0.5h640v480h-640Z"/><g><g class="mark-symbol role-mark layer_0_marks" role="graphics-object" aria-roledescription="symbol mark container"><path aria-label="x: −63.55; y: 210; events: home_run; launch_speed: 85; Result: home_run; EV: 85.0; LA: 15" role="graphics-symbol" aria-roledescription="circle" transform="translate(279.328,253.09090909090912)" d="M7.135,0A7.135,7.135,0,1,1,-7.135,0A7.135,7.135,0,1,1,7.135,0" fill="#e15759" stroke="#333" stroke-width="0.5" opacity="0.75"/><path aria-label="x: 36.45; y: 210; events: field_out; launch_speed: 87; Result: field_out; EV: 87.0; LA: 27" role="graphics-symbol" aria-roledescription="circle" transform="translate(343.3280000000001,253.09090909090912)" d="M7.361,0A7.361,7.361,0,1,1,-7.361,0A7.361,7.361,0,1,1,7.361,0" fill="#bab0ac" stroke="#333" stroke-width="0.5" opacity="0.75"/><path aria-label="x: −63.55; y: 210; events: home_run; launch_speed: 85.6; Result: home_run; EV: 85.6; LA: 15" role="graphics-symbol" aria-roledescription="circle" transform="translate(279.328,253.09090909090912)" d="M7.204,0A7.204,7.204,0,1,1,-7.204,0A7.204,7.204,0,1,1,7.204,0" fill="#e15759" stroke="#333" stroke-width="0.5" opacity="0.75"/><path aria-label="x: 36.45; y: 210; events: field_out; launch_speed: 87.6; Result: field_out; EV: 87.6; LA: 27" role="graphics-symbol" aria-roledescription="circle" transform="translate(343.3280000000001,253.09090909090912)" d="M7.427,0A7.427,7.427,0,1,1,-7.427,0A7.427,7.427,0,1,1,7.427,0" fill="#bab0ac" stroke="#333" stroke-width="0.5" opacity="0.75"/><path aria-label="x: −13.55; y: 210; events: field_out; launch_speed: 89.6; Result: field_out; EV: 89.6; LA: 24" role="graphics-symbol" aria-roledescription="circle" transform="translate(311.328,253.09090909090912)" d="M7.644,0A7.644,7.644,0,1,1,-7.644,0A7.644,7.644,0,1,1,7.644,0" fill="#bab0ac" stroke="#333" stroke-width="0.5" opacity="0.75"/><path aria-label="x: −63.55; y: 210; events: home_run; launch_speed: 86.2; Result: home_run; EV: 86.2; LA: 15" role="graphics-symbol" aria-roledescription="circle" transform="translate(279.328,253.09090909090912)" d="M7.271,0A7.271,7.271,0,1,1,-7.271,0A7.271,7.271,0,1,1,7.271,0" fill="#e15759" stroke="#333" stroke-width="0.5" opacity="0.75"/><path aria-label="x: 36.45; y: 210; events: field_out; launch_speed: 88.2; Result: field_out; EV: 88.2; LA: 27" role="graphics-symbol" aria-roledescription="circle" transform="translate(343.3280000000001,253.09090909090912)" d="M7.493,0A7.493,7.493,0,1,1,-7.493,0A7.493,7.493,0,1,1,7.493,0" fill="#bab0ac" stroke="#333" stroke-width="0.5" opacity="0.75"/><path aria-label="x: −13.55; y: 210; events: field_out; launch_speed: 90.2; Result: field_out; EV: 90.2; LA: 24" role="graphics-symbol" aria-roledescription="circle" transform="translate(311.328,253.09090909090912)" d="M7.708,0A7.708,7.708,0,1,1,-7.708,0A7.708,7.708,0,1,1,7.708,0" fill="#bab0ac" stroke="#333" stroke-width="0.5" opacity="0.75"/><path aria-label="x: −63.55; y: 210; events: home_run; launch_speed: 86.8; Result: home_run; EV: 86.8; LA: 15" role="graphics-symbol" aria-roledescription="circle" transform="translate(279.328,253.09090909090912)" d="M7.339,0A7.339,7.339,0,1,1,-7.339,0A7.339,7.339,0,1,1,7.339,0" fill="#e15759" stroke="#333" stroke-width="0.5" opacity="0.75"/><path aria-label="x: 36.45; y: 210; events: field_out; launch_speed: 88.8; Result: field_out; EV: 88.8; LA: 27" role="graphics-symbol" aria-roledescription="circle" transform="translate(343.3280000000001,253.09090909090912)" d="M7.558,0A7.558,7.558,0,1,1,-7.558,0A7.558,7.558,0,1,1,7.558,0" fill="#bab0ac" stroke="#333" stroke-width="0.5" opacity="0.75"/><path aria-label="x: −13.55; y: 210; events: field_out; launch_speed: 90.8; Result: field_out; EV: 90.8; LA: 24" role="graphics-symbol" aria-roledescription="circle" transform="translate(311.328,253.09090909090912)" d="M7.772,0A7.772,7.772,0,1,1,-7.772,0A7.772,7.772,0,1,1,7.772,0" fill="#bab0ac" stroke="#333" stroke-width="0.5" opacity="0.75"/><path aria-label="x: −63.55; y: 210; events: home_run; launch_speed: 87.4; Result: home_run; EV: 87.4; LA: 15" role="graphics-symbol" aria-roledescription="circle" transform="translate(279.328,253.09090909090912)" d="M7.405,0A7.405,7.405,0,1,1,-7.405,0A7.405,7.405,0,1,1,7.405,0" fill="#e15759" stroke="#333" stroke-width="0.5" opacity="0.75"/><path aria-label="x: 36.45; y: 210; events: field_out; launch_speed: 89.4; Result: field_out; EV: 89.4; LA: 27" role="graphics-symbol" aria-roledescription="circle" transform="translate(343.3280000000001,253.09090909090912)" d="M7.623,0A7.623,7.623,0,1,1,-7.623,0A7.623,7.623,0,1,1,7.623,0" fill="#bab0ac" stroke="#333" stroke-width="0.5" opacity="0.75"/><path aria-label="x: −13.55; y: 210; events: field_out; launch_speed: 91.4; Result: field_out; EV: 91.4; LA: 24" role="graphics-symbol" aria-roledescription="circle" transform="translate(311.328,253.09090909090912)" d="M7.835,0A7.835,7.835,0,1,1,-7.835,0A7.835,7.835,0,1,1,7.835,0" fill="#bab0ac" stroke="#333" stroke-width="0.5" opacity="0.75"/><path aria-label="x: −63.55; y: 210; events: home_run; launch_speed: 88; Result: home_run; EV: 88.0; LA: 15" role="graphics-symbol" aria-roledescription="circle" transform="translate(279.328,253.09090909090912)" d="M7.471,0A7.471,7.471,0,1,1,-7.471,0A7.471,7.471,0,1,1,7.471,0" fill="#e15759" stroke="#333" stroke-width="0.5" opacity="0.75"/><path aria-label="x: 36.45; y: 210; events: field_out; launch_speed: 90; Result: field_out; EV: 90.0; LA: 27" role="graphics-symbol" aria-roledescription="circle" transform="translate(343.3280000000001,253.09090909090912)" d="M7.687,0A7.687,7.687,0,1,1,-7.687,0A7.687,7.687,0,1,1,7.687,0" fill="#bab0ac" stroke="#333" stroke-width="0.5" opacity="0.75"/><path aria-label="x: −13.55; y: 210; events: field_out; launch_speed: 92; Result: field_out; EV: 92.0; LA: 24" role="graphics-symbol" aria-roledescription="circle" transform="translate(311.328,253.09090909090912)" d="M7.897,0A7.897,7.897,0,1,1,-7.897,0A7.897,7.897,0,1,1,7.897,0" fill="#bab0ac" stroke="#333" stroke-width="0.5" opacity="0.75"/><path aria-label="x: −63.55; y: 210; events: single; launch_speed: 88; Result: single; EV: 88.0; LA: 21" role="graphics-symbol" aria-roledescription="circle" transform="translate(279.328,253.09090909090912)" d="M7.471,0A7.471,7.471,0,1,1,-7.471,0A7.471,7.471,0,1,1,7.471,0" fill="#4e79a7" stroke="#333" stroke-width="0.5" opacity="0.75"/><path aria-label="x: −63.55; y: 210; events: home_run; launch_speed: 88.6; Result: home_run; EV: 88.6; LA: 15" role="graphics-symbol" aria-roledescription="circle" transform="translate(279.328,253.09090909090912)" d="M7.537,0A7.537,7.537,0,1,1,-7.537,0A7.537,7.537,0,1,1,7.537,0" fill="#e15759" stroke="#333" stroke-width="0.5" opacity="0.75"/><path aria-label="x: 36.45; y: 210; events: field_out; launch_speed: 90.6; Result: field_out; EV: 90.6; LA: 27" role="graphics-symbol" aria-roledescription="circle" transform="translate(343.3280000000001,253.09090909090912)" d="M7.751,0A7.751,7.751,0,1,1,-7.751,0A7.751,7.751,0,1,1,7.751,0" fill="#bab0ac" stroke="#333" stroke-width="0.5" opacity="0.75"/><path aria-label="x: −13.55; y: 210; events: field_out; launch_speed: 92.6; Result: field_out; EV: 92.6; LA: 24" role="graphics-symbol" aria-roledescription="circle" transform="translate(311.328,253.09090909090912)" d="M7.959,0A7.959,7.959,0,1,1,-7.959,0A7.959,7.959,0,1,1,7.959,0" fill="#bab0ac" stroke="#333" stroke-width="0.5" opacity="0.75"/><path aria-label="x: −63.55; y: 210; events: single; launch_speed: 88.6; Result: single; EV: 88.6; LA: 21" role="graphics-symbol" aria-roledescription="circle" transform="translate(279.328,253.09090909090912)" d="M7.537,0A7.537,7.537,0,1,1,-7.537,0A7.537,7.537,0,1,1,7.537,0" fill="#4e79a7" stroke="#333" stroke-width="0.5" opacity="0.75"/><path aria-label="x: −63.55; y: 210; events: home_run; launch_speed: 89.2; Result: home_run; EV: 89.2; LA: 15" role="graphics-symbol" aria-roledescription="circle" transform="translate(279.328,253.09090909090912)" d="M7.601,0A7.601,7.601,0,1,1,-7.601,0A7.601,7.601,0,1,1,7.601,0" fill="#e15759" stroke="#333" stroke-width="0.5" opacity="0.75"/><path aria-label="x: 36.45; y: 210; events: field_out; launch_speed: 91.2; Result: field_out; EV: 91.2; LA: 27" role="graphics-symbol" aria-roledescription="circle" transform="translate(343.3280000000001,253.09090909090912)" d="M7.814,0A7.814,7.814,0,1,1,-7.814,0A7.814,7.814,0,1,1,7.814,0" fill="#bab0ac" stroke="#333" stroke-width="0.5" opacity="0.75"/><path aria-label="x: −13.55; y: 210; events: field_out; launch_speed: 93.2; Result: field_out; EV: 93.2; LA: 24" role="graphics-symbol" aria-roledescription="circle" transform="translate(311.328,253.09090909090912)" d="M8.02,0A8.02,8.02,0,1,1,-8.02,0A8.02,8.02,0,1,1,8.02,0" fill="#bab0ac" stroke="#333" stroke-width="0.5" opacity="0.75"/><path aria-label="x: −63.55; y: 210; events: single; launch_speed: 89.2; Result: single; EV: 89.2; LA: 21" role="graphics-symbol" aria-roledescription="circle" transform="translate(279.328,253.09090909090912)" d="M7.601,0A7.601,7.601,0,1,1,-7.601,0A7.601,7.601,0,1,1,7.601,0" fill="#4e79a7" stroke="#333" stroke-width="0.5" opacity="0.75"/><path aria-label="x: −63.55; y: 210; events: home_run; launch_speed: 89.8; Result: home_run; EV: 89.8; LA: 15" role="graphics-symbol" aria-roledescription="circle" transform="translate(279.328,253.09090909090912)" d="M7.666,0A7.666,7.666,0,1,1,-7.666,0A7.666,7.666,0,1,1,7.666,0" fill="#e15759" stroke="#333" stroke-width="0.5" opacity="0.75"/><path aria-label="x: 36.45; y: 210; events: field_out; launch_speed: 91.8; Result: field_out; EV: 91.8; LA: 27" role="graphics-symbol" aria-roledescription="circle" transform="translate(343.3280000000001,253.09090909090912)" d="M7.876,0A7.876,7.876,0,1,1,-7.876,0A7.876,7.876,0,1,1,7.876,0" fill="#bab0ac" stroke="#333" stroke-width="0.5" opacity="0.75"/><path aria-label="x: −63.55; y: 210; events: home_run; launch_speed: 90.4; Result: home_run; EV: 90.4; LA: 15" role="graphics-symbol" aria-roledescription="circle" transform="translate(279.328,253.09090909090912)" d="M7.73,0A7.73,7.73,0,1,1,-7.73,0A7.73,7.73,0,1,1,7.73,0" fill="#e15759" stroke="#333" stroke-width="0.5" opacity="0.75"/><path aria-label="x: 36.45; y: 210; events: field_out; launch_speed: 92.4; Result: field_out; EV: 92.4; LA: 27" role="graphics-symbol" aria-roledescription="circle" transform="translate(343.3280000000001,253.09090909090912)" d="M7.938,0A7.938,7.938,0,1,1,-7.938,0A7.938,7.938,0,1,1,7.938,0" fill="#bab0ac" stroke="#333" stroke-width="0.5" opacity="0.75"/><path aria-label="x: −13.55; y: 210; events: field_out; launch_speed: 94.4; Result: field_out; EV: 94.4; LA: 24" role="graphics-symbol" aria-roledescription="circle" transform="translate(311.328,253.09090909090912)" d="M8.142,0A8.142,8.142,0,1,1,-8.142,0A8.142,8.142,0,1,1,8.142,0" fill="#bab0ac" stroke="#333" stroke-width="0.5" opacity="0.75"/><path aria-label="x: −63.55; y: 210; events: home_run; launch_speed: 91; Result: home_run; EV: 91.0; LA: 15" role="graphics-symbol" aria-roledescription="circle" transform="translate(279.328,253.09090909090912)" d="M7.793,0A7.793,7.793,0,1,1,-7.793,0A7.793,7.793,0,1,1,7.793,0" fill="#e15759" stroke="#333" stroke-width="0.5" opacity="0.75"/><path aria-label="x: 36.45; y: 210; events: field_out; launch_speed: 93; Result: field_out; EV: 93.0; LA: 27" role="graphics-symbol" aria-roledescription="circle" transform="translate(343.3280000000001,253.09090909090912)" d="M8,0A8,8,0,1,1,-8,0A8,8,0,1,1,8,0" fill="#bab0ac" stroke="#333" stroke-width="0.5" opacity="0.75"/><path aria-label="x: −13.55; y: 210; events: field_out; launch_speed: 95; Result: field_out; EV: 95.0; LA: 24" role="graphics-symbol" aria-roledescription="circle" transform="translate(311.328,253.09090909090912)" d="M8.202,0A8.202,8.202,0,1,1,-8.202,0A8.202,8.202,0,1,1,8.202,0" fill="#bab0ac" stroke="#333" stroke-width="0.5" opacity="0.75"/><path aria-label="x: −63.55; y: 210; events: home_run; launch_speed: 91.6; Result: home_run; EV: 91.6; LA: 15" role="graphics-symbol" aria-roledescription="circle" transform="translate(279.328,253.09090909090912)" d="M7.856,0A7.856,7.856,0,1,1,-7.856,0A7.856,7.856,0,1,1,7.856,0" fill="#e15759" stroke="#333" stroke-width="0.5" opacity="0.75"/><path aria-label="x: 36.45; y: 210; events: field_out; launch_speed: 93.6; Result: field_out; EV: 93.6; LA: 27" role="graphics-symbol" aria-roledescription="circle" transform="translate(343.3280000000001,253.09090909090912)" d="M8.061,0A8.061,8.061,0,1,1,-8.061,0A8.061,8.061,0,1,1,8.061,0" fill="#bab0ac" stroke="#333" stroke-width="0.5" opacity="0.75"/><path aria-label="x: −13.55; y: 210; events: field_out; launch_speed: 95.6; Result: field_out; EV: 95.6; LA: 24" role="graphics-symbol" aria-roledescription="circle" transform="translate(311.328,253.09090909090912)" d="M8.262,0A8.262,8.262,0,1,1,-8.262,0A8.262,8.262,0,1,1,8.262,0" fill="#bab0ac" stroke="#333" stroke-width="0.5" opacity="0.75"/><path aria-label="x: −63.55; y: 210; events: home_run; launch_speed: 92.2; Result: home_run; EV: 92.2; LA: 15" role="graphics-symbol" aria-roledescription="circle" transform="translate(279.328,253.09090909090912)" d="M7.918,0A7.918,7.918,0,1,1,-7.918,0A7.918,7.918,0,1,1,7.918,0" fill="#e15759" stroke="#333" stroke-width="0.5" opacity="0.75"/><path aria-label="x: 36.45; y: 210; events: field_out; launch_speed: 94.2; Result: field_out; EV: 94.2; LA: 27" role="graphics-symbol" aria-roledescription="circle" transform="translate(343.3280000000001,253.09090909090912)" d="M8.122,0A8.122,8.122,0,1,1,-8.122,0A8.122,8.122,0,1,1,8.122,0" fill="#bab0ac" stroke="#333" stroke-width="0.5" opacity="0.75"/><path aria-label="x: −13.55; y: 210; events: field_out; launch_speed: 96.2; Result: field_out; EV: 96.2; LA: 24" role="graphics-symbol" aria-roledescription="circle" transform="translate(311.328,253.09090909090912)" d="M8.321,0A8.321,8.321,0,1,1,-8.321,0A8.321,8.321,0,1,1,8.321,0" fill="#bab0ac" stroke="#333" stroke-width="0.5" opacity="0.75"/><path aria-label="x: −63.55; y: 210; events: home_run; launch_speed: 92.8; Result: home_run; EV: 92.8; LA: 15" role="graphics-symbol" aria-roledescription="circle" transform="translate(279.328,253.09090909090912)" d="M7.98,0A7.98,7.98,0,1,1,-7.98,0A7.98,7.98,0,1,1,7.98,0" fill="#e15759" stroke="#333" stroke-width="0.5" opacity="0.75"/><path aria-label="x: 36.45; y: 210; events: field_out; launch_speed: 94.8; Result: field_out; EV: 94.8; LA: 27" role="graphics-symbol" aria-roledescription="circle" transform="translate(343.3280000000001,253.09090909090912)" d="M8.182,0A8.182,8.182,0,1,1,-8.182,0A8.182,8.182,0,1,1,8.182,0" fill="#bab0ac" stroke="#333" stroke-width="0.5" opacity="0.75"/><path aria-label="x: −13.55; y: 210; events: field_out; launch_speed: 96.8; Result: field_out; EV: 96.8; LA: 24" role="graphics-symbol" aria-roledescription="circle" transform="translate(311.328,253.09090909090912)" d="M8.38,0A8.38,8.38,0,1,1,-8.38,0A8.38,8.38,0,1,1,8.38,0" fill="#bab0ac" stroke="#333" stroke-width="0.5" opacity="0.75"/><path aria-label="x: −63.55; y: 210; events: single; launch_speed: 92.8; Result: single; EV: 92.8; LA: 21" role="graphics-symbol" aria-roledescription="circle" transform="translate(279.328,253.09090909090912)" d="M7.98,0A7.98,7.98,0,1,1,-7.98,0A7.98,7.98,0,1,1,7.98,0" fill="#4e79a7" stroke="#333" stroke-width="0.5" opacity="0.75"/><path aria-label="x: −63.55; y: 210; events: home_run; launch_speed: 93.4; Result: home_run; EV: 93.4; LA: 15" role="graphics-symbol" aria-roledescription="circle" transform="translate(279.328,253.09090909090912)" d="M8.041,0A8.041,8.041,0,1,1,-8.041,0A8.041,8.041,0,1,1,8.041,0" fill="#e15759" stroke="#333" stroke-width="0.5" opacity="0.75"/><path aria-label="x: 36.45; y: 210; events: field_out; launch_speed: 95.4; Result: field_out; EV: 95.4; LA: 27" role="graphics-symbol" aria-roledescription="circle" transform="translate(343.3280000000001,253.09090909090912)" d="M8.242,0A8.242,8.242,0,1,1,-8.242,0A8.242,8.242,0,1,1,8.242,0" fill="#bab0ac" stroke="#333" stroke-width="0.5" opacity="0.75"/><path aria-label="x: −13.55; y: 210; events: field_out; launch_speed: 97.4; Result: field_out; EV: 97.4; LA: 24" role="graphics-symbol" aria-roledescription="circle" transform="translate(311.328,253.09090909090912)" d="M8.438,0A8.438,8.438,0,1,1,-8.438,0A8.438,8.438,0,1,1,8.438,0" fill="#bab0ac" stroke="#333" stroke-width="0.5" opacity="0.75"/><path aria-label="x: −63.55; y: 210; events: single; launch_speed: 93.4; Result: single; EV: 93.4; LA: 21" role="graphics-symbol" aria-roledescription="circle" transform="translate(279.328,253.09090909090912)" d="M8.041,0A8.041,8.041,0,1,1,-8.041,0A8.041,8.041,0,1,1,8.041,0" fill="#4e79a7" stroke="#333" stroke-width="0.5" opacity="0.75"/><path aria-label="x: −63.55; y: 210; events: home_run; launch_speed: 94; Result: home_run; EV: 94.0; LA: 15" role="graphics-symbol" aria-roledescription="circle" transform="translate(279.328,253.09090909090912)" d="M8.102,0A8.102,8.102,0,1,1,-8.102,0A8.102,8.102,0,1,1,8.102,0" fill="#e15759" stroke="#333" stroke-width="0.5" opacity="0.75"/><path aria-label="x: 36.45; y: 210; events: field_out; launch_speed: 96; Result: field_out; EV: 96.0; LA: 27" role="graphics-symbol" aria-roledescription="circle" transform="translate(343.3280000000001,253.09090909090912)" d="M8.301,0A8.301,8.301,0,1,1,-8.301,0A8.301,8.301,0,1,1,8.301,0" fill="#bab0ac" stroke="#333" stroke-width="0.5" opacity="0.75"/><path aria-label="x: −13.55; y: 210; events: field_out; launch_speed: 98; Result: field_out; EV: 98.0; LA: 24" role="graphics-symbol" aria-roledescription="circle" transform="translate(311.328,253.09090909090912)" d="M8.496,0A8.496,8.496,0,1,1,-8.496,0A8.496,8.496,0,1,1,8.496,0" fill="#bab0ac" stroke="#333" stroke-width="0.5" opacity="0.75"/><path aria-label="x: −63.55; y: 210; events: single; launch_speed: 94; Result: single; EV: 94.0; LA: 21" role="graphics-symbol" aria-roledescription="circle" transform="translate(279.328,253.09090909090912)" d="M8.102,0A8.102,8.102,0,1,1,-8.102,0A8.102,8.102,0,1,1,8.102,0" fill="#4e79a7" stroke="#333" stroke-width="0.5" opacity="0.75"/><path aria-label="x: −63.55; y: 210; events: home_run; launch_speed: 94.6; Result: home_run; EV: 94.6; LA: 15" role="graphics-symbol" aria-roledescription="circle" transform="translate(279.328,253.09090909090912)" d="M8.162,0A8.162,8.162,0,1,1,-8.162,0A8.162,8.162,0,1,1,8.162,0" fill="#e15759" stroke="#333" stroke-width="0.5" opacity="0.75"/><path aria-label="x: 36.45; y: 210; events: field_out; launch_speed: 96.6; Result: field_out; EV: 96.6; LA: 27" role="graphics-symbol" aria-roledescription="circle" transform="translate(343.3280000000001,253.09090909090912)" d="M8.36,0A8.36,8.36,0,1,1,-8.36,0A8.36,8.36,0,1,1,8.36,0" fill="#bab0ac" stroke="#333" stroke-width="0.5" opacity="0.75"/><path aria-label="x: −63.55; y: 210; events: home_run; launch_speed: 95.2; Result: home_run; EV: 95.2; LA: 15" role="graphics-symbol" aria-roledescription="circle" transform="translate(279.328,253.09090909090912)" d="M8.222,0A8.222,8.222,0,1,1,-8.222,0A8.222,8.222,0,1,1,8.222,0" fill="#e15759" stroke="#333" stroke-width="0.5" opacity="0.75"/><path aria-label="x: 36.45; y: 210; events: field_out; launch_speed: 97.2; Result: field_out; EV: 97.2; LA: 27" role="graphics-symbol" aria-roledescription="circle" transform="translate(343.3280000000001,253.09090909090912)" d="M8.419,0A8.419,8.419,0,1,1,-8.419,0A8.419,8.419,0,1,1,8.419,0" fill="#bab0ac" stroke="#333" stroke-width="0.5" opacity="0.75"/><path aria-label="x: −13.55; y: 210; events: field_out; launch_speed: 99.2; Result: field_out; EV: 99.2; LA: 24" role="graphics-symbol" aria-roledescription="circle" transform="translate(311.328,253.09090909090912)" d="M8.611,0A8.611,8.611,0,1,1,-8.611,0A8.611,8.611,0,1,1,8.611,0" fill="#bab0ac" stroke="#333" stroke-width="0.5" opacity="0.75"/></g><g class="mark-line role-mark layer_1_marks" role="graphics-object" aria-roledescription="line mark container"><path aria-label="x: −297; y: 297" role="graphics-symbol" aria-roledescription="line mark" d="M129.92,177.164L320,436.364" stroke="#888" stroke-width="1.5"/></g><g class="mark-line role-mark layer_2_marks" role="graphics-object" aria-roledescription="line mark container"><path aria-label="x: 0; y: 0" role="graphics-symbol" aria-roledescription="line mark" d="M320,436.364L510.08,177.164" stroke="#888" stroke-width="1.5"/></g><g class="mark-line role-mark layer_3_marks" role="graphics-object" aria-roledescription="line mark container"><path aria-label="x: −296.984848098; y: 296.984848098" role="graphics-symbol" aria-roledescription="line mark" d="M129.93,177.177L138.401,166.118L147.219,155.574L156.365,145.564L165.823,136.107L175.574,127.222L185.6,118.926L195.882,111.234L206.4,104.161L217.135,97.72L228.065,91.924L239.17,86.783L250.429,82.308L261.821,78.507L273.323,75.387L284.915,72.954L296.573,71.213L308.275,70.167L320,69.818L331.725,70.167L343.427,71.213L355.085,72.954L366.677,75.387L378.179,78.507L389.571,82.308L400.83,86.783L411.935,91.924L422.865,97.72L433.6,104.161L444.118,111.234L454.4,118.926L464.426,127.222L474.177,136.107L483.635,145.564L492.781,155.574L501.599,166.118L510.07,177.177" stroke="#999" stroke-width="1.5" stroke-dasharray="6,4"/></g><g class="mark-group role-legend" role="graphics-symbol" aria-roledescription="legend" aria-label="Symbol legend titled 'Result' for fill color with 7 values: single, double, triple, home_run, field_out, force_out, grounded_into_double_play"><g transform="translate(658,0)"><path class="background" aria-hidden="true" d="M0,0h174v126h-174Z" pointer-events="none"/><g><g class="mark-group role-legend-entry"><g transform="translate(0,17)"><path class="background" aria-hidden="true" d="M0,0h0v0h0Z" pointer-events="none"/><g><g class="mark-group role-scope" role="graphics-object" aria-roledescription="group mark container"><g transform="translate(0,0)"><path class="background" aria-hidden="true" d="M0,0h174v12.5h-174Z" pointer-events="none" opacity="1"/><g><g class="mark-symbol role-legend-symbol" pointer-events="none"><path transform="translate(6,6)" d="M5,0A5,5,0,1,1,-5,0A5,5,0,1,1,5,0" fill="#4e79a7" stroke="#333" stroke-width="1.5" opacity="0.75"/></g><g class="mark-text role-legend-label" pointer-events="none"><text text-anchor="start" transform="translate(16,9)" font-family="Arial, Helvetica, sans-serif" font-size="11px" fill="#000" opacity="1">single</text></g></g><path class="foreground" aria-hidden="true" d="" pointer-events="none" display="none"/></g><g transform="translate(0,16)"><path class="background" aria-hidden="true" d="M0,0h174v12.5h-174Z" pointer-events="none" opacity="1"/><g><g class="mark-symbol role-legend-symbol" pointer-events="none"><path transform="translate(6,6)" d="M5,0A5,5,0,1,1,-5,0A5,5,0,1,1,5,0" fill="#59a14f" stroke="#333" stroke-width="1.5" opacity="0.75"/></g><g class="mark-text role-legend-label" pointer-events="none"><text text-anchor="start" transform="translate(16,9)" font-family="Arial, Helvetica, sans-serif" font-size="11px" fill="#000" opacity="1">double</text></g></g><path class="foreground" aria-hidden="true" d="" pointer-events="none" display="none"/></g><g transform="translate(0,32)"><path class="background" aria-hidden="true" d="M0,0h174v12.5h-174Z" pointer-events="none" opacity="1"/><g><g class="mark-symbol role-legend-symbol" pointer-events="none"><path transform="translate(6,6)" d="M5,0A5,5,0,1,1,-5,0A5,5,0,1,1,5,0" fill="#edc948" stroke="#333" stroke-width="1.5" opacity="0.75"/></g><g class="mark-text role-legend-label" pointer-events="none"><text text-anchor="start" transform="translate(16,9)" font-family="Arial, Helvetica, sans-serif" font-size="11px" fill="#000" opacity="1">triple</text></g></g><path class="foreground" aria-hidden="true" d="" pointer-events="none" display="none"/></g><g transform="translate(0,48)"><path class="background" aria-hidden="true" d="M0,0h174v12.5h-174Z" pointer-events="none" opacity="1"/><g><g class="mark-symbol role-legend-symbol" pointer-events="none"><path transform="translate(6,6)" d="M5,0A5,5,0,1,1,-5,0A5,5,0,1,1,5,0" fill="#e15759" stroke="#333" stroke-width="1.5" opacity="0.75"/></g><g class="mark-text role-legend-label" pointer-events="none"><text text-anchor="start" transform="translate(16,9)" font-family="Arial, Helvetica, sans-serif" font-size="11px" fill="#000" opacity="1">home_run</text></g></g><path class="foreground" aria-hidden="true" d="" pointer-events="none" display="none"/></g><g transform="translate(0,64)"><path class="background" aria-hidden="true" d="M0,0h174v12.5h-174Z" pointer-events="none" opacity="1"/><g><g class="mark-symbol role-legend-symbol" pointer-events="none"><path transform="translate(6,6)" d="M5,0A5,5,0,1,1,-5,0A5,5,0,1,1,5,0" fill="#bab0ac" stroke="#333" stroke-width="1.5" opacity="0.75"/></g><g class="mark-text role-legend-label" pointer-events="none"><text text-anchor="start" transform="translate(16,9)" font-family="Arial, Helvetica, sans-serif" font-size="11px" fill="#000" opacity="1">field_out</text></g></g><path class="foreground" aria-hidden="true" d="" pointer-events="none" display="none"/></g><g transform="translate(0,80)"><path class="background" aria-hidden="true" d="M0,0h174v12.5h-174Z" pointer-events="none" opacity="1"/><g><g class="mark-symbol role-legend-symbol" pointer-events="none"><path transform="translate(6,6)" d="M5,0A5,5,0,1,1,-5,0A5,5,0,1,1,5,0" fill="#bab0ac" stroke="#333" stroke-width="1.5" opacity="0.75"/></g><g class="mark-text role-legend-label" pointer-events="none"><text text-anchor="start" transform="translate(16,9)" font-family="Arial, Helvetica, sans-serif" font-size="11px" fill="#000" opacity="1">force_out</text></g></g><path class="foreground" aria-hidden="true" d="" pointer-events="none" display="none"/></g><g transform="translate(0,96)"><path class="background" aria-hidden="true" d="M0,0h174v12.5h-174Z" pointer-events="none" opacity="1"/><g><g class="mark-symbol role-legend-symbol" pointer-events="none"><path transform="translate(6,6)" d="M5,0A5,5,0,1,1,-5,0A5,5,0,1,1,5,0" fill="#bab0ac" stroke="#333" stroke-width="1.5" opacity="0.75"/></g><g class="mark-text role-legend-label" pointer-events="none"><text text-anchor="start" transform="translate(16,9)" font-family="Arial, Helvetica, sans-serif" font-size="11px" fill="#000" opacity="1">grounded_into_dou…</text></g></g><path class="foreground" aria-hidden="true" d="" pointer-events="none" display="none"/></g></g></g><path class="foreground" aria-hidden="true" d="" pointer-events="none" display="none"/></g></g><g class="mark-text role-legend-title" pointer-events="none"><text text-anchor="start" transform="translate(0,9)" font-family="Arial, Helvetica, sans-serif" font-size="12px" font-weight="bold" fill="#000" opacity="1">Result</text></g></g><path class="foreground" aria-hidden="true" d="" pointer-events="none" display="none"/></g></g><g class="mark-group role-legend" role="graphics-symbol" aria-roledescription="legend" aria-label="Symbol legend titled 'Exit Velo' for size with values from 60 to 115"><g transform="translate(658,134)"><path class="background" aria-hidden="true" d="M0,0h86v132h-86Z" pointer-events="none"/><g><g class="mark-group role-legend-entry"><g transform="translate(0,17)"><path class="background" aria-hidden="true" d="M0,0h0v0h0Z" pointer-events="none"/><g><g class="mark-group role-scope" role="graphics-object" aria-roledescription="group mark container"><g transform="translate(0,0)"><path class="background" aria-hidden="true" d="M0,0h51v10.5h-51Z" pointer-events="none" opacity="1"/><g><g class="mark-symbol role-legend-symbol" pointer-events="none"><path transform="translate(10.5,5.5)" d="M3.162,0A3.162,3.162,0,1,1,-3.162,0A3.162,3.162,0,1,1,3.162,0" fill="black" fill-opacity="0.75" stroke="#333" stroke-width="1.5" opacity="0.75"/></g><g class="mark-text role-legend-label" pointer-events="none"><text text-anchor="start" transform="translate(25,8.5)" font-family="Arial, Helvetica, sans-serif" font-size="11px" fill="#000" opacity="1">60</text></g></g><path class="foreground" aria-hidden="true" d="" pointer-events="none" display="none"/></g><g transform="translate(0,14)"><path class="background" aria-hidden="true" d="M0,0h51v12.634553180524705h-51Z" pointer-events="none" opacity="1"/><g><g class="mark-symbol role-legend-symbol" pointer-events="none"><path transform="translate(10.5,6)" d="M5.135,0A5.135,5.135,0,1,1,-5.135,0A5.135,5.135,0,1,1,5.135,0" fill="black" fill-opacity="0.75" stroke="#333" stroke-width="1.5" opacity="0.75"/></g><g class="mark-text role-legend-label" pointer-events="none"><text text-anchor="start" transform="translate(25,9)" font-family="Arial, Helvetica, sans-serif" font-size="11px" fill="#000" opacity="1">70</text></g></g><path class="foreground" aria-hidden="true" d="" pointer-events="none" display="none"/></g><g transform="translate(0,30)"><path class="background" aria-hidden="true" d="M0,0h51v15.536610186271837h-51Z" pointer-events="none" opacity="1"/><g><g class="mark-symbol role-legend-symbol" pointer-events="none"><path transform="translate(10.5,7.5)" d="M6.537,0A6.537,6.537,0,1,1,-6.537,0A6.537,6.537,0,1,1,6.537,0" fill="black" fill-opacity="0.75" stroke="#333" stroke-width="1.5" opacity="0.75"/></g><g class="mark-text role-legend-label" pointer-events="none"><text text-anchor="start" transform="translate(25,10.5)" font-family="Arial, Helvetica, sans-serif" font-size="11px" fill="#000" opacity="1">80</text></g></g><path class="foreground" aria-hidden="true" d="" pointer-events="none" display="none"/></g><g transform="translate(0,49)"><path class="background" aria-hidden="true" d="M0,0h51v17.687061147858074h-51Z" pointer-events="none" opacity="1"/><g><g class="mark-symbol role-legend-symbol" pointer-events="none"><path transform="translate(10.5,8.5)" d="M7.687,0A7.687,7.687,0,1,1,-7.687,0A7.687,7.687,0,1,1,7.687,0" fill="black" fill-opacity="0.75" stroke="#333" stroke-width="1.5" opacity="0.75"/></g><g class="mark-text role-legend-label" pointer-events="none"><text text-anchor="start" transform="translate(25,11.5)" font-family="Arial, Helvetica, sans-serif" font-size="11px" fill="#000" opacity="1">90</text></g></g><path class="foreground" aria-hidden="true" d="" pointer-events="none" display="none"/></g><g transform="translate(0,70)"><path class="background" aria-hidden="true" d="M0,0h51v19.686457589520913h-51Z" pointer-events="none" opacity="1"/><g><g class="mark-symbol role-legend-symbol" pointer-events="none"><path transform="translate(10.5,9.5)" d="M8.686,0A8.686,8.686,0,1,1,-8.686,0A8.686,8.686,0,1,1,8.686,0" fill="black" fill-opacity="0.75" stroke="#333" stroke-width="1.5" opacity="0.75"/></g><g class="mark-text role-legend-label" pointer-events="none"><text text-anchor="start" transform="translate(25,12.5)" font-family="Arial, Helvetica, sans-serif" font-size="11px" fill="#000" opacity="1">100</text></g></g><path class="foreground" aria-hidden="true" d="" pointer-events="none" display="none"/></g><g transform="translate(0,93)"><path class="background" aria-hidden="true" d="M0,0h51v21.58218043131008h-51Z" pointer-events="none" opacity="1"/><g><g class="mark-symbol role-legend-symbol" pointer-events="none"><path transform="translate(10.5,10.5)" d="M9.582,0A9.582,9.582,0,1,1,-9.582,0A9.582,9.582,0,1,1,9.582,0" fill="black" fill-opacity="0.75" stroke="#333" stroke-width="1.5" opacity="0.75"/></g><g class="mark-text role-legend-label" pointer-events="none"><text text-anchor="start" transform="translate(25,13.5)" font-family="Arial, Helvetica, sans-serif" font-size="11px" fill="#000" opacity="1">110</text></g></g><path class="foreground" aria-hidden="true" d="" pointer-events="none" display="none"/></g></g></g><path class="foreground" aria-hidden="true" d="" pointer-events="none" display="none"/></g></g><g class="mark-text role-legend-title" pointer-events="none"><text text-anchor="start" transform="translate(0,9)" font-family="Arial, Helvetica, sans-serif" font-size="12px" font-weight="bold" fill="#000" opacity="1">Exit Velo</text></g></g><path class="foreground" aria-hidden="true" d="" pointer-events="none" display="none"/></g></g><g class="mark-group role-title"><g transform="translate(0,-20)"><path class="background" aria-hidden="true" d="M0,0h0v0h0Z" pointer-events="none"/><g><g class="mark-text role-title-text" role="graphics-symbol" aria-roledescription="title" aria-label="Title text 'Test Hitter — Spray Chart (2026)'" pointer-events="none"><text text-anchor="start" transform="translate(0,13)" font-family="Arial, Helvetica, sans-serif" font-size="16px" font-weight="bold" fill="#000" opacity="1">Test Hitter — Spray Chart (2026)</text></g></g><path class="foreground" aria-hidden="true" d="" pointer-events="none" display="none"/></g></g></g><path class="foreground" aria-hidden="true" d="" display="none"/></g></g></g></svg>