<svg xmlns="http://www.w3.org/2000/svg" xmlns:xlink="http://www.w3.org/1999/xlink" version="1.1" class="marks" width="684" height="584" viewBox="0 0 684 584"><rect width="684" height="584" fill="white"/><g fill="none" stroke-miterlimit="10" transform="translate(148,36)"><g class="mark-group role-frame root" role="graphics-object" aria-roledescription="group mark container"><g transform="translate(0,0)"><path class="background" aria-hidden="true" d="M0,0h0v0h0Z"/><g><g class="mark-group role-row-header row_header" role="graphics-object" aria-roledescription="group mark container"><g transform="translate(-46,0)"><path class="background" aria-hidden="true" d="M0,0h0v80h0Z"/><g><g class="mark-group role-title"><g transform="translate(-34,40)"><path class="background" aria-hidden="true" d="M0,0h0v0h0Z" pointer-events="none"/><g><g class="mark-text role-title-text" role="graphics-symbol" aria-roledescription="title" aria-label="Title text 'AVG'" pointer-events="none"><text text-anchor="start" transform="translate(0,3)" font-family="Arial, Helvetica, sans-serif" font-size="10px" font-weight="bold" fill="#000" opacity="1">AVG</text></g></g><path class="foreground" aria-hidden="true" d="" pointer-events="none" display="none"/></g></g></g><path class="foreground" aria-hidden="true" d="" display="none"/></g><g transform="translate(-46,103)"><path class="background" aria-hidden="true" d="M0,0h0v80h0Z"/><g><g class="mark-group role-title"><g transform="translate(-34,40)"><path class="background" aria-hidden="true" d="M0,0h0v0h0Z" pointer-events="none"/><g><g class="mark-text role-title-text" role="graphics-symbol" aria-roledescription="title" aria-label="Title text 'SLG'" pointer-events="none"><text text-anchor="start" transform="translate(0,3)" font-family="Arial, Helvetica, sans-serif" font-size="10px" font-weight="bold" fill="#000" opacity="1">SLG</text></g></g><path class="foreground" aria-hidden="true" d="" pointer-events="none" display="none"/></g></g></g><path class="foreground" aria-hidden="true" d="" display="none"/></g><g transform="translate(-46,205)"><path class="background" aria-hidden="true" d="M0,0h0v80h0Z"/><g><g class="mark-group role-title"><g transform="translate(-34,40)"><path class="background" aria-hidden="true" d="M0,0h0v0h0Z" pointer-events="none"/><g><g class="mark-text role-title-text" role="graphics-symbol" aria-roledescription="title" aria-label="Title text 'K %'" pointer-events="none"><text text-anchor="start" transform="translate(0,3)" font-family="Arial, Helvetica, sans-serif" font-size="10px" font-weight="bold" fill="#000" opacity="1">K %</text></g></g><path class="foreground" aria-hidden="true" d="" pointer-events="none" display="none"/></g></g></g><path class="foreground" aria-hidden="true" d="" display="none"/></g><g transform="translate(-46,312)"><path class="background" aria-hidden="true" d="M0,0h0v80h0Z"/><g><g class="mark-group role-title"><g transform="translate(-58,40)"><path class="background" aria-hidden="true" d="M0,0h0v0h0Z" pointer-events="none"/><g><g class="mark-text role-title-text" role="graphics-symbol" aria-roledescription="title" aria-label="Title text 'Avg EV'" pointer-events="none"><text text-anchor="start" transform="translate(0,3)" font-family="Arial, Helvetica, sans-serif" font-size="10px" font-weight="bold" fill="#000" opacity="1">Avg EV</text></g></g><path class="foreground" aria-hidden="true" d="" pointer-events="none" display="none"/></g></g></g><path class="foreground" aria-hidden="true" d="" display="none"/></g><g transform="translate(-46,414)"><path class="background" aria-hidden="true" d="M0,0h0v80h0Z"/><g><g class="mark-group role-title"><g transform="translate(-90,40)"><path class="background" aria-hidden="true" d="M0,0h0v0h0Z" pointer-events="none"/><g><g class="mark-text role-title-text" role="graphics-symbol" aria-roledescription="title" aria-label="Title text 'Hard Hit %'" pointer-events="none"><text text-anchor="start" transform="translate(0,3)" font-family="Arial, Helvetica, sans-serif" font-size="10px" font-weight="bold" fill="#000" opacity="1">Hard Hit %</text></g></g><path class="foreground" aria-hidden="true" d="" pointer-events="none" display="none"/></g></g></g><path class="foreground" aria-hidden="true" d="" display="none"/></g></g><g class="mark-group role-column-footer column_footer" role="graphics-object" aria-roledescription="group mark container"><g transform="translate(0,501)"><path class="background" aria-hidden="true" d="M0,0h520v0h-520Z"/><g><g class="mark-group role-axis" role="graphics-symbol" aria-roledescription="axis" aria-label="X-axis titled 'Window End' for a time scale with values from May 12 to July 26"><g transform="translate(0.5,0.5)"><path class="background" aria-hidden="true" d="M0,0h0v0h0Z" pointer-events="none"/><g><g class="mark-rule role-axis-tick" pointer-events="none"><line transform="translate(37,0)" x2="0" y2="5" stroke="#888" stroke-width="1" opacity="1"/><line transform="translate(85,0)" x2="0" y2="5" stroke="#888" stroke-width="1" opacity="1"/><line transform="translate(134,0)" x2="0" y2="5" stroke="#888" stroke-width="1" opacity="1"/><line transform="translate(182,0)" x2="0" y2="5" stroke="#888" stroke-width="1" opacity="1"/><line transform="translate(231,0)" x2="0" y2="5" stroke="#888" stroke-width="1" opacity="1"/><line transform="translate(279,0)" x2="0" y2="5" stroke="#888" stroke-width="1" opacity="1"/><line transform="translate(328,0)" x2="0" y2="5" stroke="#888" stroke-width="1" opacity="1"/><line transform="translate(376,0)" x2="0" y2="5" stroke="#888" stroke-width="1" opacity="1"/><line transform="translate(425,0)" x2="0" y2="5" stroke="#888" stroke-width="1" opacity="1"/><line transform="translate(473,0)" x2="0" y2="5" stroke="#888" stroke-width="1" opacity="1"/></g><g class="mark-text role-axis-label" pointer-events="none"><text text-anchor="middle" transform="translate(36.68888888888889,16)" font-family="Arial, Helvetica, sans-serif" font-size="12px" fill="#000" opacity="1">May 18</text><text text-anchor="middle" transform="translate(85.22222222222223,16)" font-family="Arial, Helvetica, sans-serif" font-size="12px" fill="#000" opacity="0">May 25</text><text text-anchor="middle" transform="translate(133.75555555555556,16)" font-family="Arial, Helvetica, sans-serif" font-size="12px" fill="#000" opacity="1">Jun 01</text><text text-anchor="middle" transform="translate(182.2888888888889,16)" font-family="Arial, Helvetica, sans-serif" font-size="12px" fill="#000" opacity="0">Jun 08</text><text text-anchor="middle" transform="translate(230.82222222222222,16)" font-family="Arial, Helvetica, sans-serif" font-size="12px" fill="#000" opacity="1">Jun 15</text><text text-anchor="middle" transform="translate(279.35555555555555,16)" font-family="Arial, Helvetica, sans-serif" font-size="12px" fill="#000" opacity="0">Jun 22</text><text text-anchor="middle" transform="translate(327.88888888888886,16)" font-family="Arial, Helvetica, sans-serif" font-size="12px" fill="#000" opacity="1">Jun 29</text><text text-anchor="middle" transform="translate(376.4222222222222,16)" font-family="Arial, Helvetica, sans-serif" font-size="12px" fill="#000" opacity="0">Jul 06</text><text text-anchor="middle" transform="translate(424.9555555555555,16)" font-family="Arial, Helvetica, sans-serif" font-size="12px" fill="#000" opacity="1">Jul 13</text><text text-anchor="middle" transform="translate(473.4888888888889,16)" font-family="Arial, Helvetica, sans-serif" font-size="12px" fill="#000" opacity="0">Jul 20</text></g><g class="mark-rule role-axis-domain" pointer-events="none"><line transform="translate(0,0)" x2="520" y2="0" stroke="#888" stroke-width="1" opacity="1"/></g><g class="mark-text role-axis-title" pointer-events="none"><text text-anchor="middle" transform="translate(260,32)" font-family="Arial, Helvetica, sans-serif" font-size="13px" font-weight="bold" fill="#000" opacity="1">Window End</text></g></g><path class="foreground" aria-hidden="true" d="" pointer-events="none" display="none"/></g></g></g><path class="foreground" aria-hidden="true" d="" display="none"/></g></g><g class="mark-group role-scope cell" role="graphics-object" aria-roledescription="group mark container"><g transform="translate(0,0)"><path class="background" aria-hidden="true" d="M0.5,0.5h520v80h-520Z"/><g><g class="mark-group role-axis" aria-hidden="true"><g transform="translate(0.5,80.5)"><path class="background" aria-hidden="true" d="M0,0h0v0h0Z" pointer-events="none"/><g><g class="mark-rule role-axis-grid" pointer-events="none"><line transform="translate(37,-80)" x2="0" y2="80" stroke="#ddd" stroke-width="1" opacity="1"/><line transform="translate(85,-80)" x2="0" y2="80" stroke="#ddd" stroke-width="1" opacity="1"/><line transform="translate(134,-80)" x2="0" y2="80" stroke="#ddd" stroke-width="1" opacity="1"/><line transform="translate(182,-80)" x2="0" y2="80" stroke="#ddd" stroke-width="1" opacity="1"/><line transform="translate(231,-80)" x2="0" y2="80" stroke="#ddd" stroke-width="1" opacity="1"/><line transform="translate(279,-80)" x2="0" y2="80" stroke="#ddd" stroke-width="1" opacity="1"/><line transform="translate(328,-80)" x2="0" y2="80" stroke="#ddd" stroke-width="1" opacity="1"/><line transform="translate(376,-80)" x2="0" y2="80" stroke="#ddd" stroke-width="1" opacity="1"/><line transform="translate(425,-80)" x2="0" y2="80" stroke="#ddd" stroke-width="1" opacity="1"/><line transform="translate(473,-80)" x2="0" y2="80" stroke="#ddd" stroke-width="1" opacity="1"/></g></g><path class="foreground" aria-hidden="true" d="" pointer-events="none" display="none"/></g></g><g class="mark-group role-axis" aria-hidden="true"><g transform="translate(0.5,0.5)"><path class="background" aria-hidden="true" d="M0,0h0v0h0Z" pointer-events="none"/><g><g class="mark-rule role-axis-grid" pointer-events="none"><line transform="translate(0,62)" x2="520" y2="0" stroke="#ddd" stroke-width="1" opacity="1"/><line transform="translate(0,18)" x2="520" y2="0" stroke="#ddd" stroke-width="1" opacity="1"/></g></g><path class="foreground" aria-hidden="true" d="" pointer-events="none" display="none"/></g></g><g class="mark-group role-axis" role="graphics-symbol" aria-roledescription="axis" aria-label="Y-axis for a linear scale with values from 0.766 to 0.784"><g transform="translate(0.5,0.5)"><path class="background" aria-hidden="true" d="M0,0h0v0h0Z" pointer-events="none"/><g><g class="mark-rule role-axis-tick" pointer-events="none"><line transform="translate(0,62)" x2="-5" y2="0" stroke="#888" stroke-width="1" opacity="1"/><line transform="translate(0,18)" x2="-5" y2="0" stroke="#888" stroke-width="1" opacity="1"/></g><g class="mark-text role-axis-label" pointer-events="none"><text text-anchor="end" transform="translate(-7,66.22222222222223)" font-family="Arial, Helvetica, sans-serif" font-size="12px" fill="#000" opacity="1">0.77</text><text text-anchor="end" transform="translate(-7,21.77777777777778)" font-family="Arial, Helvetica, sans-serif" font-size="12px" fill="#000" opacity="1">0.78</text></g><g class="mark-rule role-axis-domain" pointer-events="none"><line transform="translate(0,80)" x2="0" y2="-80" stroke="#888" stroke-width="1" opacity="1"/></g></g><path class="foreground" aria-hidden="true" d="" pointer-events="none" display="none"/></g></g><g class="mark-group role-scope child_layer_0_layer_0_pathgroup" role="graphics-object" aria-roledescription="group mark container"><g transform="translate(0,0)"><path class="background" aria-hidden="true" d="M0,0h520v80h-520Z"/><g><g class="mark-line role-mark child_layer_0_layer_0_marks" role="graphics-object" aria-roledescription="line mark container"><path aria-label="window_end: May 12; value: 0.784; metric: AVG; Metric: AVG; Value: 0.784" role="graphics-symbol" aria-roledescription="line mark" d="M0,0L104,26.667L208,53.333L312,75.556L416,53.333L520,26.667" stroke="#4c78a8" stroke-width="2"/></g></g><path class="foreground" aria-hidden="true" d="" display="none"/></g></g><g class="mark-symbol role-mark child_layer_0_layer_1_marks" role="graphics-object" aria-roledescription="symbol mark container"><path aria-label="window_end: May 12; value: 0.784; metric: AVG; Metric: AVG; Value: 0.784" role="graphics-symbol" aria-roledescription="point" transform="translate(0,0)" d="M2.739,0A2.739,2.739,0,1,1,-2.739,0A2.739,2.739,0,1,1,2.739,0" fill="#4c78a8" stroke-width="2" opacity="1"/><path aria-label="window_end: May 27; value: 0.778; metric: AVG; Metric: AVG; Value: 0.778" role="graphics-symbol" aria-roledescription="point" transform="translate(104,26.66666666666667)" d="M2.739,0A2.739,2.739,0,1,1,-2.739,0A2.739,2.739,0,1,1,2.739,0" fill="#4c78a8" stroke-width="2" opacity="1"/><path aria-label="window_end: Jun 11; value: 0.772; metric: AVG; Metric: AVG; Value: 0.772" role="graphics-symbol" aria-roledescription="point" transform="translate(208,53.33333333333334)" d="M2.739,0A2.739,2.739,0,1,1,-2.739,0A2.739,2.739,0,1,1,2.739,0" fill="#4c78a8" stroke-width="2" opacity="1"/><path aria-label="window_end: Jun 26; value: 0.767; metric: AVG; Metric: AVG; Value: 0.767" role="graphics-symbol" aria-roledescription="point" transform="translate(312,75.55555555555556)" d="M2.739,0A2.739,2.739,0,1,1,-2.739,0A2.739,2.739,0,1,1,2.739,0" fill="#4c78a8" stroke-width="2" opacity="1"/><path aria-label="window_end: Jul 11; value: 0.772; metric: AVG; Metric: AVG; Value: 0.772" role="graphics-symbol" aria-roledescription="point" transform="translate(416,53.33333333333334)" d="M2.739,0A2.739,2.739,0,1,1,-2.739,0A2.739,2.739,0,1,1,2.739,0" fill="#4c78a8" stroke-width="2" opacity="1"/><path aria-label="window_end: Jul 26; value: 0.778; metric: AVG; Metric: AVG; Value: 0.778" role="graphics-symbol" aria-roledescription="point" transform="translate(520,26.66666666666667)" d="M2.739,0A2.739,2.739,0,1,1,-2.739,0A2.739,2.739,0,1,1,2.739,0" fill="#4c78a8" stroke-width="2" opacity="1"/></g><g class="mark-rule role-mark child_layer_1_marks" role="graphics-object" aria-roledescription="rule mark container"><line aria-label="Mean of value: 0.775166666667; metric: AVG" role="graphics-symbol" aria-roledescription="rule mark" transform="translate(520,39.259259259259345)" x2="-520" y2="0" stroke="#4c78a8" stroke-dasharray="4,4" opacity="0.4"/></g></g><path class="foreground" aria-hidden="true" d="" display="none"/></g><g transform="translate(0,103)"><path class="background" aria-hidden="true" d="M0.5,0.5h520v80h-520Z"/><g><g class="mark-group role-axis" aria-hidden="true"><g transform="translate(0.5,80.5)"><path class="background" aria-hidden="true" d="M0,0h0v0h0Z" pointer-events="none"/><g><g class="mark-rule role-axis-grid" pointer-events="none"><line transform="translate(37,-80)" x2="0" y2="80" stroke="#ddd" stroke-width="1" opacity="1"/><line transform="translate(85,-80)" x2="0" y2="80" stroke="#ddd" stroke-width="1" opacity="1"/><line transform="translate(134,-80)" x2="0" y2="80" stroke="#ddd" stroke-width="1" opacity="1"/><line transform="translate(182,-80)" x2="0" y2="80" stroke="#ddd" stroke-width="1" opacity="1"/><line transform="translate(231,-80)" x2="0" y2="80" stroke="#ddd" stroke-width="1" opacity="1"/><line transform="translate(279,-80)" x2="0" y2="80" stroke="#ddd" stroke-width="1" opacity="1"/><line transform="translate(328,-80)" x2="0" y2="80" stroke="#ddd" stroke-width="1" opacity="1"/><line transform="translate(376,-80)" x2="0" y2="80" stroke="#ddd" stroke-width="1" opacity="1"/><line transform="translate(425,-80)" x2="0" y2="80" stroke="#ddd" stroke-width="1" opacity="1"/><line transform="translate(473,-80)" x2="0" y2="80" stroke="#ddd" stroke-width="1" opacity="1"/></g></g><path class="foreground" aria-hidden="true" d="" pointer-events="none" display="none"/></g></g><g class="mark-group role-axis" aria-hidden="true"><g transform="translate(0.5,0.5)"><path class="background" aria-hidden="true" d="M0,0h0v0h0Z" pointer-events="none"/><g><g class="mark-rule role-axis-grid" pointer-events="none"><line transform="translate(0,73)" x2="520" y2="0" stroke="#ddd" stroke-width="1" opacity="1"/><line transform="translate(0,47)" x2="520" y2="0" stroke="#ddd" stroke-width="1" opacity="1"/><line transform="translate(0,20)" x2="520" y2="0" stroke="#ddd" stroke-width="1" opacity="1"/></g></g><path class="foreground" aria-hidden="true" d="" pointer-events="none" display="none"/></g></g><g class="mark-group role-axis" role="graphics-symbol" aria-roledescription="axis" aria-label="Y-axis for a linear scale with values from 1.70 to 1.75"><g transform="translate(0.5,0.5)"><path class="background" aria-hidden="true" d="M0,0h0v0h0Z" pointer-events="none"/><g><g class="mark-rule role-axis-tick" pointer-events="none"><line transform="translate(0,73)" x2="-5" y2="0" stroke="#888" stroke-width="1" opacity="1"/><line transform="translate(0,47)" x2="-5" y2="0" stroke="#888" stroke-width="1" opacity="1"/><line transform="translate(0,20)" x2="-5" y2="0" stroke="#888" stroke-width="1" opacity="1"/></g><g class="mark-text role-axis-label" pointer-events="none"><text text-anchor="end" transform="translate(-7,77.33333333333346)" font-family="Arial, Helvetica, sans-serif" font-size="12px" fill="#000" opacity="1">1.70</text><text text-anchor="end" transform="translate(-7,50.6666666666667)" font-family="Arial, Helvetica, sans-serif" font-size="12px" fill="#000" opacity="1">1.72</text><text text-anchor="end" transform="translate(-7,23.99999999999993)" font-family="Arial, Helvetica, sans-serif" font-size="12px" fill="#000" opacity="1">1.74</text></g><g class="mark-rule role-axis-domain" pointer-events="none"><line transform="translate(0,80)" x2="0" y2="-80" stroke="#888" stroke-width="1" opacity="1"/></g></g><path class="foreground" aria-hidden="true" d="" pointer-events="none" display="none"/></g></g><g class="mark-group role-scope child_layer_0_layer_0_pathgroup" role="graphics-object" aria-roledescription="group mark container"><g transform="translate(0,0)"><path class="background" aria-hidden="true" d="M0,0h520v80h-520Z"/><g><g class="mark-line role-mark child_layer_0_layer_0_marks" role="graphics-object" aria-roledescription="line mark container"><path aria-label="window_end: May 12; value: 1.753; metric: SLG; Metric: SLG; Value: 1.753" role="graphics-symbol" aria-roledescription="line mark" d="M0,2.667L104,24L208,42.667L312,74.667L416,56L520,37.333" stroke="#54a24b" stroke-width="2"/></g></g><path class="foreground" aria-hidden="true" d="" display="none"/></g></g><g class="mark-symbol role-mark child_layer_0_layer_1_marks" role="graphics-object" aria-roledescription="symbol mark container"><path aria-label="window_end: May 12; value: 1.753; metric: SLG; Metric: SLG; Value: 1.753" role="graphics-symbol" aria-roledescription="point" transform="translate(0,2.666666666666675)" d="M2.739,0A2.739,2.739,0,1,1,-2.739,0A2.739,2.739,0,1,1,2.739,0" fill="#54a24b" stroke-width="2" opacity="1"/><path aria-label="window_end: May 27; value: 1.737; metric: SLG; Metric: SLG; Value: 1.737" role="graphics-symbol" aria-roledescription="point" transform="translate(104,23.99999999999979)" d="M2.739,0A2.739,2.739,0,1,1,-2.739,0A2.739,2.739,0,1,1,2.739,0" fill="#54a24b" stroke-width="2" opacity="1"/><path aria-label="window_end: Jun 11; value: 1.723; metric: SLG; Metric: SLG; Value: 1.723" role="graphics-symbol" aria-roledescription="point" transform="translate(208,42.66666666666653)" d="M2.739,0A2.739,2.739,0,1,1,-2.739,0A2.739,2.739,0,1,1,2.739,0" fill="#54a24b" stroke-width="2" opacity="1"/><path aria-label="window_end: Jun 26; value: 1.699; metric: SLG; Metric: SLG; Value: 1.699" role="graphics-symbol" aria-roledescription="point" transform="translate(312,74.66666666666666)" d="M2.739,0A2.739,2.739,0,1,1,-2.739,0A2.739,2.739,0,1,1,2.739,0" fill="#54a24b" stroke-width="2" opacity="1"/><path aria-label="window_end: Jul 11; value: 1.713; metric: SLG; Metric: SLG; Value: 1.713" role="graphics-symbol" aria-roledescription="point" transform="translate(416,55.99999999999991)" d="M2.739,0A2.739,2.739,0,1,1,-2.739,0A2.739,2.739,0,1,1,2.739,0" fill="#54a24b" stroke-width="2" opacity="1"/><path aria-label="window_end: Jul 26; value: 1.727; metric: SLG; Metric: SLG; Value: 1.727" role="graphics-symbol" aria-roledescription="point" transform="translate(520,37.33333333333317)" d="M2.739,0A2.739,2.739,0,1,1,-2.739,0A2.739,2.739,0,1,1,2.739,0" fill="#54a24b" stroke-width="2" opacity="1"/></g><g class="mark-rule role-mark child_layer_1_marks" role="graphics-object" aria-roledescription="rule mark container"><line aria-label="Mean of value: 1.72533333333; metric: SLG" role="graphics-symbol" aria-roledescription="rule mark" transform="translate(520,39.55555555555546)" x2="-520" y2="0" stroke="#54a24b" stroke-dasharray="4,4" opacity="0.4"/></g></g><path class="foreground" aria-hidden="true" d="" display="none"/></g><g transform="translate(0,205)"><path class="background" aria-hidden="true" d="M0.5,0.5h520v80h-520Z"/><g><g class="mark-group role-axis" aria-hidden="true"><g transform="translate(0.5,80.5)"><path class="background" aria-hidden="true" d="M0,0h0v0h0Z" pointer-events="none"/><g><g class="mark-rule role-axis-grid" pointer-events="none"><line transform="translate(37,-80)" x2="0" y2="80" stroke="#ddd" stroke-width="1" opacity="1"/><line transform="translate(85,-80)" x2="0" y2="80" stroke="#ddd" stroke-width="1" opacity="1"/><line transform="translate(134,-80)" x2="0" y2="80" stroke="#ddd" stroke-width="1" opacity="1"/><line transform="translate(182,-80)" x2="0" y2="80" stroke="#ddd" stroke-width="1" opacity="1"/><line transform="translate(231,-80)" x2="0" y2="80" stroke="#ddd" stroke-width="1" opacity="1"/><line transform="translate(279,-80)" x2="0" y2="80" stroke="#ddd" stroke-width="1" opacity="1"/><line transform="translate(328,-80)" x2="0" y2="80" stroke="#ddd" stroke-width="1" opacity="1"/><line transform="translate(376,-80)" x2="0" y2="80" stroke="#ddd" stroke-width="1" opacity="1"/><line transform="translate(425,-80)" x2="0" y2="80" stroke="#ddd" stroke-width="1" opacity="1"/><line transform="translate(473,-80)" x2="0" y2="80" stroke="#ddd" stroke-width="1" opacity="1"/></g></g><path class="foreground" aria-hidden="true" d="" pointer-events="none" display="none"/></g></g><g class="mark-group role-axis" aria-hidden="true"><g transform="translate(0.5,0.5)"><path class="background" aria-hidden="true" d="M0,0h0v0h0Z" pointer-events="none"/><g><g class="mark-rule role-axis-grid" pointer-events="none"><line transform="translate(0,62)" x2="520" y2="0" stroke="#ddd" stroke-width="1" opacity="1"/><line transform="translate(0,18)" x2="520" y2="0" stroke="#ddd" stroke-width="1" opacity="1"/></g></g><path class="foreground" aria-hidden="true" d="" pointer-events="none" display="none"/></g></g><g class="mark-group role-axis" role="graphics-symbol" aria-roledescription="axis" aria-label="Y-axis for a linear scale with values from 21.6 to 23.4"><g transform="translate(0.5,0.5)"><path class="background" aria-hidden="true" d="M0,0h0v0h0Z" pointer-events="none"/><g><g class="mark-rule role-axis-tick" pointer-events="none"><line transform="translate(0,62)" x2="-5" y2="0" stroke="#888" stroke-width="1" opacity="1"/><line transform="translate(0,18)" x2="-5" y2="0" stroke="#888" stroke-width="1" opacity="1"/></g><g class="mark-text role-axis-label" pointer-events="none"><text text-anchor="end" transform="translate(-7,66.22222222222226)" font-family="Arial, Helvetica, sans-serif" font-size="12px" fill="#000" opacity="1">22</text><text text-anchor="end" transform="translate(-7,21.777777777777743)" font-family="Arial, Helvetica, sans-serif" font-size="12px" fill="#000" opacity="1">23</text></g><g class="mark-rule role-axis-domain" pointer-events="none"><line transform="translate(0,80)" x2="0" y2="-80" stroke="#888" stroke-width="1" opacity="1"/></g></g><path class="foreground" aria-hidden="true" d="" pointer-events="none" display="none"/></g></g><g class="mark-group role-scope child_layer_0_layer_0_pathgroup" role="graphics-object" aria-roledescription="group mark container"><g transform="translate(0,0)"><path class="background" aria-hidden="true" d="M0,0h520v80h-520Z"/><g><g class="mark-line role-mark child_layer_0_layer_0_marks" role="graphics-object" aria-roledescription="line mark container"><path aria-label="window_end: May 12; value: 21.6; metric: K %; Metric: K %; Value: 21.600" role="graphics-symbol" aria-roledescription="line mark" d="M0,80L104,53.333L208,26.667L312,4.444L416,26.667L520,53.333" stroke="#72b7b2" stroke-width="2"/></g></g><path class="foreground" aria-hidden="true" d="" display="none"/></g></g><g class="mark-symbol role-mark child_layer_0_layer_1_marks" role="graphics-object" aria-roledescription="symbol mark container"><path aria-label="window_end: May 12; value: 21.6; metric: K %; Metric: K %; Value: 21.600" role="graphics-symbol" aria-roledescription="point" transform="translate(0,80)" d="M2.739,0A2.739,2.739,0,1,1,-2.739,0A2.739,2.739,0,1,1,2.739,0" fill="#72b7b2" stroke-width="2" opacity="1"/><path aria-label="window_end: May 27; value: 22.2; metric: K %; Metric: K %; Value: 22.200" role="graphics-symbol" aria-roledescription="point" transform="translate(104,53.33333333333339)" d="M2.739,0A2.739,2.739,0,1,1,-2.739,0A2.739,2.739,0,1,1,2.739,0" fill="#72b7b2" stroke-width="2" opacity="1"/><path aria-label="window_end: Jun 11; value: 22.8; metric: K %; Metric: K %; Value: 22.800" role="graphics-symbol" aria-roledescription="point" transform="translate(208,26.666666666666615)" d="M2.739,0A2.739,2.739,0,1,1,-2.739,0A2.739,2.739,0,1,1,2.739,0" fill="#72b7b2" stroke-width="2" opacity="1"/><path aria-label="window_end: Jun 26; value: 23.3; metric: K %; Metric: K %; Value: 23.300" role="graphics-symbol" aria-roledescription="point" transform="translate(312,4.444444444444358)" d="M2.739,0A2.739,2.739,0,1,1,-2.739,0A2.739,2.739,0,1,1,2.739,0" fill="#72b7b2" stroke-width="2" opacity="1"/><path aria-label="window_end: Jul 11; value: 22.8; metric: K %; Metric: K %; Value: 22.800" role="graphics-symbol" aria-roledescription="point" transform="translate(416,26.666666666666615)" d="M2.739,0A2.739,2.739,0,1,1,-2.739,0A2.739,2.739,0,1,1,2.739,0" fill="#72b7b2" stroke-width="2" opacity="1"/><path aria-label="window_end: Jul 26; value: 22.2; metric: K %; Metric: K %; Value: 22.200" role="graphics-symbol" aria-roledescription="point" transform="translate(520,53.33333333333339)" d="M2.739,0A2.739,2.739,0,1,1,-2.739,0A2.739,2.739,0,1,1,2.739,0" fill="#72b7b2" stroke-width="2" opacity="1"/></g><g class="mark-rule role-mark child_layer_1_marks" role="graphics-object" aria-roledescription="rule mark container"><line aria-label="Mean of value: 22.4833333333; metric: K %" role="graphics-symbol" aria-roledescription="rule mark" transform="translate(520,40.7407407407407)" x2="-520" y2="0" stroke="#72b7b2" stroke-dasharray="4,4" opacity="0.4"/></g></g><path class="foreground" aria-hidden="true" d="" display="none"/></g><g transform="translate(0,312)"><path class="background" aria-hidden="true" d="M0.5,0.5h520v80h-520Z"/><g><g class="mark-group role-axis" aria-hidden="true"><g transform="translate(0.5,80.5)"><path class="background" aria-hidden="true" d="M0,0h0v0h0Z" pointer-events="none"/><g><g class="mark-rule role-axis-grid" pointer-events="none"><line transform="translate(37,-80)" x2="0" y2="80" stroke="#ddd" stroke-width="1" opacity="1"/><line transform="translate(85,-80)" x2="0" y2="80" stroke="#ddd" stroke-width="1" opacity="1"/><line transform="translate(134,-80)" x2="0" y2="80" stroke="#ddd" stroke-width="1" opacity="1"/><line transform="translate(182,-80)" x2="0" y2="80" stroke="#ddd" stroke-width="1" opacity="1"/><line transform="translate(231,-80)" x2="0" y2="80" stroke="#ddd" stroke-width="1" opacity="1"/><line transform="translate(279,-80)" x2="0" y2="80" stroke="#ddd" stroke-width="1" opacity="1"/><line transform="translate(328,-80)" x2="0" y2="80" stroke="#ddd" stroke-width="1" opacity="1"/><line transform="translate(376,-80)" x2="0" y2="80" stroke="#ddd" stroke-width="1" opacity="1"/><line transform="translate(425,-80)" x2="0" y2="80" stroke="#ddd" stroke-width="1" opacity="1"/><line transform="translate(473,-80)" x2="0" y2="80" stroke="#ddd" stroke-width="1" opacity="1"/></g></g><path class="foreground" aria-hidden="true" d="" pointer-events="none" display="none"/></g></g><g class="mark-group role-axis" aria-hidden="true"><g transform="translate(0.5,0.5)"><path class="background" aria-hidden="true" d="M0,0h0v0h0Z" pointer-events="none"/><g><g class="mark-rule role-axis-grid" pointer-events="none"><line transform="translate(0,70)" x2="520" y2="0" stroke="#ddd" stroke-width="1" opacity="1"/><line transform="translate(0,20)" x2="520" y2="0" stroke="#ddd" stroke-width="1" opacity="1"/></g></g><path class="foreground" aria-hidden="true" d="" pointer-events="none" display="none"/></g></g><g class="mark-group role-axis" role="graphics-symbol" aria-roledescription="axis" aria-label="Y-axis for a linear scale with values from 89 to 97"><g transform="translate(0.5,0.5)"><path class="background" aria-hidden="true" d="M0,0h0v0h0Z" pointer-events="none"/><g><g class="mark-rule role-axis-tick" pointer-events="none"><line transform="translate(0,70)" x2="-5" y2="0" stroke="#888" stroke-width="1" opacity="1"/><line transform="translate(0,20)" x2="-5" y2="0" stroke="#888" stroke-width="1" opacity="1"/></g><g class="mark-text role-axis-label" pointer-events="none"><text text-anchor="end" transform="translate(-7,74)" font-family="Arial, Helvetica, sans-serif" font-size="12px" fill="#000" opacity="1">90</text><text text-anchor="end" transform="translate(-7,24)" font-family="Arial, Helvetica, sans-serif" font-size="12px" fill="#000" opacity="1">95</text></g><g class="mark-rule role-axis-domain" pointer-events="none"><line transform="translate(0,80)" x2="0" y2="-80" stroke="#888" stroke-width="1" opacity="1"/></g></g><path class="foreground" aria-hidden="true" d="" pointer-events="none" display="none"/></g></g><g class="mark-group role-scope child_layer_0_layer_0_pathgroup" role="graphics-object" aria-roledescription="group mark container"><g transform="translate(0,0)"><path class="background" aria-hidden="true" d="M0,0h520v80h-520Z"/><g><g class="mark-line role-mark child_layer_0_layer_0_marks" role="graphics-object" aria-roledescription="line mark container"><path aria-label="window_end: May 12; value: 89.5; metric: Avg EV; Metric: Avg EV; Value: 89.500" role="graphics-symbol" aria-roledescription="line mark" d="M0,75L104,60L208,45L312,30L416,15L520,1" stroke="#f58518" stroke-width="2"/></g></g><path class="foreground" aria-hidden="true" d="" display="none"/></g></g><g class="mark-symbol role-mark child_layer_0_layer_1_marks" role="graphics-object" aria-roledescription="symbol mark container"><path aria-label="window_end: May 12; value: 89.5; metric: Avg EV; Metric: Avg EV; Value: 89.500" role="graphics-symbol" aria-roledescription="point" transform="translate(0,75)" d="M2.739,0A2.739,2.739,0,1,1,-2.739,0A2.739,2.739,0,1,1,2.739,0" fill="#f58518" stroke-width="2" opacity="1"/><path aria-label="window_end: May 27; value: 91; metric: Avg EV; Metric: Avg EV; Value: 91.000" role="graphics-symbol" aria-roledescription="point" transform="translate(104,60)" d="M2.739,0A2.739,2.739,0,1,1,-2.739,0A2.739,2.739,0,1,1,2.739,0" fill="#f58518" stroke-width="2" opacity="1"/><path aria-label="window_end: Jun 11; value: 92.5; metric: Avg EV; Metric: Avg EV; Value: 92.500" role="graphics-symbol" aria-roledescription="point" transform="translate(208,45)" d="M2.739,0A2.739,2.739,0,1,1,-2.739,0A2.739,2.739,0,1,1,2.739,0" fill="#f58518" stroke-width="2" opacity="1"/><path aria-label="window_end: Jun 26; value: 94; metric: Avg EV; Metric: Avg EV; Value: 94.000" role="graphics-symbol" aria-roledescription="point" transform="translate(312,30)" d="M2.739,0A2.739,2.739,0,1,1,-2.739,0A2.739,2.739,0,1,1,2.739,0" fill="#f58518" stroke-width="2" opacity="1"/><path aria-label="window_end: Jul 11; value: 95.5; metric: Avg EV; Metric: Avg EV; Value: 95.500" role="graphics-symbol" aria-roledescription="point" transform="translate(416,15)" d="M2.739,0A2.739,2.739,0,1,1,-2.739,0A2.739,2.739,0,1,1,2.739,0" fill="#f58518" stroke-width="2" opacity="1"/><path aria-label="window_end: Jul 26; value: 96.9; metric: Avg EV; Metric: Avg EV; Value: 96.900" role="graphics-symbol" aria-roledescription="point" transform="translate(520,0.9999999999999432)" d="M2.739,0A2.739,2.739,0,1,1,-2.739,0A2.739,2.739,0,1,1,2.739,0" fill="#f58518" stroke-width="2" opacity="1"/></g><g class="mark-rule role-mark child_layer_1_marks" role="graphics-object" aria-roledescription="rule mark container"><line aria-label="Mean of value: 93.2333333333; metric: Avg EV" role="graphics-symbol" aria-roledescription="rule mark" transform="translate(520,37.66666666666666)" x2="-520" y2="0" stroke="#f58518" stroke-dasharray="4,4" opacity="0.4"/></g></g><path class="foreground" aria-hidden="true" d="" display="none"/></g><g transform="translate(0,414)"><path class="background" aria-hidden="true" d="M0.5,0.5h520v80h-520Z"/><g><g class="mark-group role-axis" aria-hidden="true"><g transform="translate(0.5,80.5)"><path class="background" aria-hidden="true" d="M0,0h0v0h0Z" pointer-events="none"/><g><g class="mark-rule role-axis-grid" pointer-events="none"><line transform="translate(37,-80)" x2="0" y2="80" stroke="#ddd" stroke-width="1" opacity="1"/><line transform="translate(85,-80)" x2="0" y2="80" stroke="#ddd" stroke-width="1" opacity="1"/><line transform="translate(134,-80)" x2="0" y2="80" stroke="#ddd" stroke-width="1" opacity="1"/><line transform="translate(182,-80)" x2="0" y2="80" stroke="#ddd" stroke-width="1" opacity="1"/><line transform="translate(231,-80)" x2="0" y2="80" stroke="#ddd" stroke-width="1" opacity="1"/><line transform="translate(279,-80)" x2="0" y2="80" stroke="#ddd" stroke-width="1" opacity="1"/><line transform="translate(328,-80)" x2="0" y2="80" stroke="#ddd" stroke-width="1" opacity="1"/><line transform="translate(376,-80)" x2="0" y2="80" stroke="#ddd" stroke-width="1" opacity="1"/><line transform="translate(425,-80)" x2="0" y2="80" stroke="#ddd" stroke-width="1" opacity="1"/><line transform="translate(473,-80)" x2="0" y2="80" stroke="#ddd" stroke-width="1" opacity="1"/></g></g><path class="foreground" aria-hidden="true" d="" pointer-events="none" display="none"/></g></g><g class="mark-group role-axis" aria-hidden="true"><g transform="translate(0.5,0.5)"><path class="background" aria-hidden="true" d="M0,0h0v0h0Z" pointer-events="none"/><g><g class="mark-rule role-axis-grid" pointer-events="none"><line transform="translate(0,80)" x2="520" y2="0" stroke="#ddd" stroke-width="1" opacity="1"/><line transform="translate(0,23)" x2="520" y2="0" stroke="#ddd" stroke-width="1" opacity="1"/></g></g><path class="foreground" aria-hidden="true" d="" pointer-events="none" display="none"/></g></g><g class="mark-group role-axis" role="graphics-symbol" aria-roledescription="axis" aria-label="Y-axis for a linear scale with values from 0 to 70"><g transform="translate(0.5,0.5)"><path class="background" aria-hidden="true" d="M0,0h0v0h0Z" pointer-events="none"/><g><g class="mark-rule role-axis-tick" pointer-events="none"><line transform="translate(0,80)" x2="-5" y2="0" stroke="#888" stroke-width="1" opacity="1"/><line transform="translate(0,23)" x2="-5" y2="0" stroke="#888" stroke-width="1" opacity="1"/></g><g class="mark-text role-axis-label" pointer-events="none"><text text-anchor="end" transform="translate(-7,84)" font-family="Arial, Helvetica, sans-serif" font-size="12px" fill="#000" opacity="1">0</text><text text-anchor="end" transform="translate(-7,26.857142857142854)" font-family="Arial, Helvetica, sans-serif" font-size="12px" fill="#000" opacity="1">50</text></g><g class="mark-rule role-axis-domain" pointer-events="none"><line transform="translate(0,80)" x2="0" y2="-80" stroke="#888" stroke-width="1" opacity="1"/></g></g><path class="foreground" aria-hidden="true" d="" pointer-events="none" display="none"/></g></g><g class="mark-group role-scope child_layer_0_layer_0_pathgroup" role="graphics-object" aria-roledescription="group mark container"><g transform="translate(0,0)"><path class="background" aria-hidden="true" d="M0,0h520v80h-520Z"/><g><g class="mark-line role-mark child_layer_0_layer_0_marks" role="graphics-object" aria-roledescription="line mark container"><path aria-label="window_end: May 12; value: 3.9; metric: Hard Hit %; Metric: Hard Hit %; Value: 3.900" role="graphics-symbol" aria-roledescription="line mark" d="M0,75.543L104,65.143L208,47.771L312,33.714L416,19.886L520,4.343" stroke="#e45756" stroke-width="2"/></g></g><path class="foreground" aria-hidden="true" d="" display="none"/></g></g><g class="mark-symbol role-mark child_layer_0_layer_1_marks" role="graphics-object" aria-roledescription="symbol mark container"><path aria-label="window_end: May 12; value: 3.9; metric: Hard Hit %; Metric: Hard Hit %; Value: 3.900" role="graphics-symbol" aria-roledescription="point" transform="translate(0,75.54285714285714)" d="M2.739,0A2.739,2.739,0,1,1,-2.739,0A2.739,2.739,0,1,1,2.739,0" fill="#e45756" stroke-width="2" opacity="1"/><path aria-label="window_end: May 27; value: 13; metric: Hard Hit %; Metric: Hard Hit %; Value: 13.000" role="graphics-symbol" aria-roledescription="point" transform="translate(104,65.14285714285714)" d="M2.739,0A2.739,2.739,0,1,1,-2.739,0A2.739,2.739,0,1,1,2.739,0" fill="#e45756" stroke-width="2" opacity="1"/><path aria-label="window_end: Jun 11; value: 28.2; metric: Hard Hit %; Metric: Hard Hit %; Value: 28.200" role="graphics-symbol" aria-roledescription="point" transform="translate(208,47.77142857142857)" d="M2.739,0A2.739,2.739,0,1,1,-2.739,0A2.739,2.739,0,1,1,2.739,0" fill="#e45756" stroke-width="2" opacity="1"/><path aria-label="window_end: Jun 26; value: 40.5; metric: Hard Hit %; Metric: Hard Hit %; Value: 40.500" role="graphics-symbol" aria-roledescription="point" transform="translate(312,33.71428571428571)" d="M2.739,0A2.739,2.739,0,1,1,-2.739,0A2.739,2.739,0,1,1,2.739,0" fill="#e45756" stroke-width="2" opacity="1"/><path aria-label="window_end: Jul 11; value: 52.6; metric: Hard Hit %; Metric: Hard Hit %; Value: 52.600" role="graphics-symbol" aria-roledescription="point" transform="translate(416,19.885714285714286)" d="M2.739,0A2.739,2.739,0,1,1,-2.739,0A2.739,2.739,0,1,1,2.739,0" fill="#e45756" stroke-width="2" opacity="1"/><path aria-label="window_end: Jul 26; value: 66.2; metric: Hard Hit %; Metric: Hard Hit %; Value: 66.200" role="graphics-symbol" aria-roledescription="point" transform="translate(520,4.342857142857142)" d="M2.739,0A2.739,2.739,0,1,1,-2.739,0A2.739,2.739,0,1,1,2.739,0" fill="#e45756" stroke-width="2" opacity="1"/></g><g class="mark-rule role-mark child_layer_1_marks" role="graphics-object" aria-roledescription="rule mark container"><line aria-label="Mean of value: 34.0666666667; metric: Hard Hit %" role="graphics-symbol" aria-roledescription="rule mark" transform="translate(520,41.06666666666666)" x2="-520" y2="0" stroke="#e45756" stroke-dasharray="4,4" opacity="0.4"/></g></g><path class="foreground" aria-hidden="true" d="" display="none"/></g></g><g class="mark-group role-title"><g transform="translate(-136,-23.73861278752583)"><path class="background" aria-hidden="true" d="M0,0h0v0h0Z" pointer-events="none"/><g><g class="mark-text role-title-text" role="graphics-symbol" aria-roledescription="title" aria-label="Title text 'Test Hitter — Rolling Performance (2026)'" pointer-events="none"><text text-anchor="start" transform="translate(0,13)" font-family="Arial, Helvetica, sans-serif" font-size="16px" font-weight="bold" fill="#000" opacity="1">Test Hitter — Rolling Performance (2026)</text></g></g><path class="foreground" aria-hidden="true" d="" pointer-events="none" display="none"/></g></g></g><path class="foreground" aria-hidden="true" d="" display="none"/></g></g></g></svg>